<svg id="svg2" xmlns="http://www.w3.org/2000/svg" viewBox="0 0 774.15 833.94"><defs><style>.cls-1{fill:#ef3340;fill-rule:evenodd;}</style></defs><path id="path2396" class="cls-1" d="M485.48,196.66C165.7,93.22,31.71,293.71,105.79,593.41-29.35,357.11-4.95,155.74,88.5,64.53S344.43-7.7,485.48,196.66Z" transform="translate(-11.4 -12.35)"/><path id="path2398" class="cls-1" d="M523.3,252.28c-95.12.21-319.26,24-278.09,292.18C14.08,299.66,242,128.32,523.3,252.28Z" transform="translate(-11.4 -12.35)"/><path id="path2400" class="cls-1" d="M728,596.37c-273.16,185-480.78,75.85-605.13-152C152.41,870.56,434.7,1014,728,596.37Z" transform="translate(-11.4 -12.35)"/><path id="path2444" class="cls-1" d="M454.33,529.63c-73,76.14-158.4,12.79-168-116.8C229.67,616.93,419.86,703.31,454.33,529.63Z" transform="translate(-11.4 -12.35)"/><path id="path2446" class="cls-1" d="M377.58,523.7c51.24-55.11-.92-111.26-66.37-137.94C449.19,379.05,482.48,502.46,377.58,523.7Z" transform="translate(-11.4 -12.35)"/><path id="path2448" class="cls-1" d="M445.66,640.27c73.95-94.81,118.29-279.76-109.07-301C657,173.52,593.39,506.87,445.66,640.27Z" transform="translate(-11.4 -12.35)"/><path id="path2450" class="cls-1" d="M506,640.27C584.51,545.68,762.83,321,371.72,24.65,965,166.3,837.21,594.54,506,640.27Z" transform="translate(-11.4 -12.35)"/></svg>