<?xml version="1.0" encoding="UTF-8"?>
<svg id="Layer_1" data-name="Layer 1" xmlns="http://www.w3.org/2000/svg" viewBox="0 0 54.04 52.1">
  <defs>
    <style>
      .cls-1 {
        fill: #3a9144;
      }

      .cls-1, .cls-2, .cls-3, .cls-4 {
        stroke-width: 0px;
      }

      .cls-2 {
        fill: #d40f14;
      }

      .cls-3 {
        fill: #fff;
      }

      .cls-4 {
        fill: #623c2c;
      }
    </style>
  </defs>
  <g id="g14">
    <path id="path4" class="cls-1" d="M33.94,8c.6.5,1.1,1,1.7,1.5,1.2,1,2.5,1.8,3.9,2.5,1.2.5,2.4.9,3.7,1.1.2,0,.5.1.7.1.4,0,.8.1,1.2.1h1.1c.3,0,.6-.1.9-.1,2.6-.4,5.2-1.7,6.9-3.7h-.3c-.5-.1-1-.2-1.5-.4s-.9-.4-1.3-.7c-.8-.5-1.4-1.1-2.1-1.8-.3-.4-.7-.7-1-1.1l-.2-.2c-.4-.5-.9-1-1.4-1.5-1.4-1.4-3.1-2.6-5.1-3.2-.3-.1-.6-.2-.9-.2-.4-.1-.7-.1-1.1-.1h-1.2c-.2,0-.5,0-.7.1-1.2.2-2.4.6-3.5,1.2-2,1.1-3.8,2.6-5.4,4.2h.6c1.2.1,2.1.5,2.9.9.8.4,1.4.9,1.8,1.2q.2,0,.3.1"/>
    <path id="path6" class="cls-2" d="M47.14,14.1c-.2,0-.5.1-.7.1h-1.2c-.4,0-.9,0-1.3-.1-.3,0-.5-.1-.8-.1-1.3-.2-2.6-.6-3.9-1.2-1.5-.7-2.9-1.5-4.2-2.6-.4-.3-.8-.7-1.1-1-.2-.2-.4-.4-.6-.5-.1,0-.1-.1-.2-.2-.5-.4-1-.8-1.6-1.1-.3-.1-.5-.3-.8-.4-.5-.1-1.1-.1-1.6-.2-1-.1-2-.3-2.9-.6-1-.4-1.9-1-2.9-1.5-2.2-1.3-4.7-1.9-7.3-1.6-.9.1-1.9.3-2.9.6-1.2.3-2.2.9-3.2,1.6-.9.6-1.7,1.3-2.5,2-.4.4-.8.8-1.1,1.2-.2.2-.4.5-.6.7-.4.5-.8,1.1-1.2,1.6-.9,1.4-1.7,2.9-2.4,4.5-.9,2.3-1.6,4.8-1.9,7.2-.2,1.9-.3,3.8-.2,5.7.1.9.2,1.8.3,2.6.3,1.9.9,3.9,1.6,5.7,1,2.4,2.3,4.6,3.8,6.6.5.7,1.1,1.3,1.6,1.9.4.4.7.8,1.1,1.1.7.7,1.5,1.4,2.3,2,1.6,1.2,3.4,2.3,5.4,2.8.7.1,1.3.2,2,.2,1.7-.1,3.5-.3,5.2,0,1.9.3,3.8,1,5.8,1,1.6,0,3.2-.4,4.7-1,.7-.3,1.4-.6,2.1-1,1.7-1,3.2-2.3,4.6-3.6.4-.4.9-.9,1.3-1.4.5-.6,1-1.2,1.5-1.9,1.4-1.9,2.7-4,3.7-6.2.8-1.7,1.4-3.5,1.8-5.3.2-.8.4-1.6.5-2.5.3-1.8.5-3.6.5-5.4,0-2.3-.3-4.7-1.1-6.9-.4-.8-.9-1.8-1.6-2.8"/>
    <path id="path8" class="cls-3" d="M35.14,27.7h-10.2c-1,5-2.1,10-3.1,15h4.4c.6-2.7,1.2-5.5,1.8-8.2h5.6l1.5-6.8Z"/>
    <path id="path10" class="cls-3" d="M37.54,16.6h-14.4c-1.4,0-2.7.6-3.6,1.8-.1.2-.3.4-.4.6-.2.5-.4,1-.5,1.6,0,.3-4.2,22-4.2,22h5.2s3.1-15.8,3.2-16.2c.2-.7.3-1.1.9-1.1h12l1.8-8.7Z"/>
    <path id="path12" class="cls-4" d="M28.24,5.7c.8-2.7,2.4-4.6,2.4-4.6l-2.3-1.1c-1,1.9-1.6,3.9-2,5.2.8.4,1.6.5,1.9.5"/>
  </g>
</svg>