<?xml version="1.0" encoding="UTF-8" standalone="no"?>
<!-- Created with Inkscape (http://www.inkscape.org/) -->

<svg
   xmlns:dc="http://purl.org/dc/elements/1.1/"
   xmlns:cc="http://creativecommons.org/ns#"
   xmlns:rdf="http://www.w3.org/1999/02/22-rdf-syntax-ns#"
   xmlns:svg="http://www.w3.org/2000/svg"
   xmlns="http://www.w3.org/2000/svg"
   xmlns:sodipodi="http://sodipodi.sourceforge.net/DTD/sodipodi-0.dtd"
   xmlns:inkscape="http://www.inkscape.org/namespaces/inkscape"
   width="229.86662"
   height="120.98588"
   id="svg2"
   version="1.1"
   inkscape:version="0.48.4 r9939"
   sodipodi:docname="drawing1.svg">
  <defs
     id="defs4">
    <clipPath
       id="clipPath2999"
       clipPathUnits="userSpaceOnUse">
      <path
         id="path3001"
         d="m 0,109.5 201.75,0 L 201.75,0 0,0 0,109.5 z"
         inkscape:connector-curvature="0" />
    </clipPath>
    <clipPath
       id="clipPath3070"
       clipPathUnits="userSpaceOnUse">
      <path
         id="path3072"
         d="m 0,109.5 201.75,0 L 201.75,0 0,0 0,109.5 z"
         inkscape:connector-curvature="0" />
    </clipPath>
    <clipPath
       id="clipPath3141"
       clipPathUnits="userSpaceOnUse">
      <path
         id="path3143"
         d="m 0,109.5 201.75,0 L 201.75,0 0,0 0,109.5 z"
         inkscape:connector-curvature="0" />
    </clipPath>
    <clipPath
       id="clipPath3212"
       clipPathUnits="userSpaceOnUse">
      <path
         id="path3214"
         d="m 0,109.5 201.75,0 L 201.75,0 0,0 0,109.5 z"
         inkscape:connector-curvature="0" />
    </clipPath>
  </defs>
  <sodipodi:namedview
     id="base"
     pagecolor="#ffffff"
     bordercolor="#666666"
     borderopacity="1.0"
     inkscape:pageopacity="0.0"
     inkscape:pageshadow="2"
     inkscape:zoom="0.98994949"
     inkscape:cx="131.32916"
     inkscape:cy="23.89889"
     inkscape:document-units="px"
     inkscape:current-layer="g3135"
     showgrid="false"
     inkscape:window-width="1920"
     inkscape:window-height="1028"
     inkscape:window-x="-8"
     inkscape:window-y="-8"
     inkscape:window-maximized="1"
     fit-margin-top="0"
     fit-margin-left="0"
     fit-margin-right="0"
     fit-margin-bottom="0" />
  <metadata
     id="metadata7">
    <rdf:RDF>
      <cc:Work
         rdf:about="">
        <dc:format>image/svg+xml</dc:format>
        <dc:type
           rdf:resource="http://purl.org/dc/dcmitype/StillImage" />
        <dc:title />
      </cc:Work>
    </rdf:RDF>
  </metadata>
  <g
     inkscape:label="Layer 1"
     inkscape:groupmode="layer"
     id="layer1"
     transform="translate(-243.67083,-435.2752)">
    <g
       transform="matrix(1.25,0,0,-1.25,475.75831,761.06966)"
       inkscape:label="hoyre_logo_2f_ny"
       id="g3135">
      <g
         transform="translate(-197.18178,156.77567)"
         inkscape:label="hoyre_logo_2f_ny"
         id="g3206">
        <g
           id="g3208">
          <g
             clip-path="url(#clipPath3212)"
             id="g3210">
            <g
               transform="translate(145.3389,55.5479)"
               id="g3216">
              <path
                 id="path3218"
                 style="fill:#145194;fill-opacity:1;fill-rule:nonzero;stroke:none"
                 d="m 0,0 c -0.684,1.807 -6.938,2.053 -15.57,0.918 l 1.703,-9.83 C -4.93,-5.697 0.723,-1.943 0,0"
                 inkscape:connector-curvature="0" />
            </g>
            <g
               transform="translate(146.4561,83.7939)"
               id="g3220">
              <path
                 id="path3222"
                 style="fill:#b8d3eb;fill-opacity:1;fill-rule:nonzero;stroke:none"
                 d="m 0,0 5.207,-25.732 c 0.078,-0.444 0.023,-0.93 -0.184,-1.454 -1.199,-3.263 -9.605,-7.933 -19.918,-10.519 l 0.153,-0.863 c 19.82,1.203 41.582,4.722 63.691,14.082 L 40.461,20.066 C 27.301,11.215 12.645,4.203 0,0"
                 inkscape:connector-curvature="0" />
            </g>
            <g
               transform="translate(145.1318,88.3008)"
               id="g3224">
              <path
                 id="path3226"
                 style="fill:#145194;fill-opacity:1;fill-rule:nonzero;stroke:none"
                 d="m 0,0 -0.012,-0.013 c -2.129,6.39 -10.511,13.304 -34.746,12.715 l 0.012,0.008 C -67.524,11.896 -97.282,3.825 -133.62,-13.545 l 11.351,-61.085 c 4.207,3.063 9.688,6.875 16.608,11.367 11.963,7.776 23.916,14.114 31.404,17.883 12.942,6.651 25.976,11.631 38.652,15.219 5.644,1.769 12.769,3.168 20.07,3.779 13.019,1.119 21.515,-0.297 22.066,-3.857 L 1.324,-4.507 0,0 z"
                 inkscape:connector-curvature="0" />
            </g>
            <g
               transform="translate(90.6504,23.4521)"
               id="g3228">
              <path
                 id="path3230"
                 style="fill:#145194;fill-opacity:1;fill-rule:nonzero;stroke:none"
                 d="m 0,0 0,5.25 c 0,5.051 5.097,5.063 5.097,5.063 0,0 -0.01,-26.167 0,-26.167 l -5.097,0 0,11.692 -9.443,0 0,-6.627 c 0,-4.984 -5.092,-5.065 -5.092,-5.065 l 0,21.104 c 0,5.051 5.092,5.063 5.092,5.063 L -9.443,0 0,0 z"
                 inkscape:connector-curvature="0" />
            </g>
            <g
               transform="translate(131.1396,33.7646)"
               id="g3232">
              <path
                 id="path3234"
                 style="fill:#145194;fill-opacity:1;fill-rule:nonzero;stroke:none"
                 d="M 0,0 5.945,0 10.52,-9.096 15.512,0 l 5.972,0 -8.273,-14.16 0,-7.576 c 0,-4.35 -5.09,-4.43 -5.09,-4.43 l 0,12.006 L 0,0 z"
                 inkscape:connector-curvature="0" />
            </g>
            <g
               transform="translate(166.9561,18.6396)"
               id="g3236">
              <path
                 id="path3238"
                 style="fill:#145194;fill-opacity:1;fill-rule:nonzero;stroke:none"
                 d="m 0,0 c 3.5,0.586 5.336,3.916 5.336,7.252 0,5.58 -3.578,7.873 -8.734,7.873 0,0 -1.805,0.014 -1.848,0.014 -0.01,0 -5.061,-0.026 -5.061,-4.571 l 0,-21.609 c 0,0 5.096,0.08 5.096,4.43 l 0,6.119 0.074,0 6.348,-10.549 6.172,0 L 0,0 z m -5.211,10.953 0.693,0 c 2.704,0 4.758,-0.613 4.758,-3.844 0,-3.193 -1.982,-4.027 -4.797,-4.027 l -0.654,0 0,7.871 z"
                 inkscape:connector-curvature="0" />
            </g>
            <g
               transform="translate(184.9541,29.3154)"
               id="g3240">
              <path
                 id="path3242"
                 style="fill:#145194;fill-opacity:1;fill-rule:nonzero;stroke:none"
                 d="m 0,0 0,-5.754 8.123,0 0,-4.437 -8.123,0 0,-7.08 8.436,0 c -0.032,0 0.085,-4.54 -5.086,-4.54 -0.047,0 -8.454,-0.015 -8.454,-0.015 l 0,21.719 c 0,-0.014 0.051,4.57 5.036,4.57 L 8.436,4.449 8.436,0 0,0 z"
                 inkscape:connector-curvature="0" />
            </g>
            <g
               transform="translate(122.7178,20.6982)"
               id="g3244">
              <path
                 id="path3246"
                 style="fill:#145194;fill-opacity:1;fill-rule:nonzero;stroke:none"
                 d="m 0,0 c 0,-4.781 -3.426,-8.654 -7.648,-8.654 -1.719,0 -3.295,0.646 -4.573,1.72 L -1.008,4.281 C -0.371,3.02 0,1.561 0,0 m -7.648,8.66 c 1.984,0 3.789,-0.863 5.148,-2.273 L -13.883,-5.002 c -0.887,1.408 -1.414,3.135 -1.414,5.002 0,4.777 3.422,8.66 7.649,8.66 M 6.32,11.598 c -3.513,0 -5.193,-1.582 -5.193,-1.582 -2.309,2.23 -5.389,3.609 -8.775,3.609 -7.172,0 -12.989,-6.107 -12.989,-13.625 0,-3.324 1.135,-6.363 3.02,-8.73 0,0 -2.955,-2.913 -2.914,-2.913 3.879,0 4.683,1.08 4.683,1.08 2.239,-1.914 5.09,-3.064 8.2,-3.064 7.166,0 12.986,6.104 12.986,13.627 0,3.027 -0.951,5.813 -2.545,8.076 l 3.527,3.522 z"
                 inkscape:connector-curvature="0" />
            </g>
          </g>
        </g>
      </g>
    </g>
  </g>
</svg>
