<svg xmlns="http://www.w3.org/2000/svg" xml:space="preserve" width="200" height="178.077"><path d="M176.246 6.597c-33.758-18.45-76.629 3.808-91.209 41.862C87.032-3.917 37.152-3.27 16.215 14.637-4.72 32.543-3.945 71.154 10.34 91.044c0 0 1.519-1.745.456-3.955C5.303 75.65-2.143 43.797 19.732 26.1c19.45-15.736 56.218-13.896 52.87 37.948 21.14-8.01 18.215-31.032 47.737-44.999 22.065-10.44 54.333-4.566 59.72 23.487 4.134 21.53.714 50.325-62.78 89.304 1.238-8.98 3.93-29.405 4.866-38.864 3.788-1.392 11.184-4.711 14.645-6.725 7.903-4.604 13.293-7.447 16.257-19.567-12.588 6.001-28.067 10.785-29.234 12.175 2.399-23.128 8.15-36.732 25.61-41.368 4.114-1.093 4.162-3.73 4.162-3.73-24.776 0-40.769 5.34-46.632 50.368-.027.21-.06.418-.093.627-7.359 3.166-16.115 6.336-20.645 13.905 1.234-8.968 1.69-11.46 2.487-15.46-8.626 2.563-16.93 9.163-19.61 25.072-.807 4.786-4.042 23.279-5.27 34.048-3.843-.68-14.036-23.263-17.584-26.102 18.209-12.42 19.147-15.453 21.58-27.991-7.954 5.436-27.811 14.117-30.89 17.194.243-2.283 4.498-52.275 8.967-63.735-11.545 0-19.23 14.574-21.139 27.59-.53 3.6-11.086 96.098-18.612 108.8 18.42-5.157 23.573-16.385 28.148-53.158 12.61 22.522 27.301 38.55 37.022 32.297 5.543-3.563 7.02-8.43 13.555-46.63 1.43-7.589 18.055-9.78 19.946-11.673-1.835 14.852-3.433 28.723-5.196 41.215-24.36 17.597-23.871 33.713-15.66 35.608 14.022 3.235 28.21-18.38 32.349-37.83 21.008-11.218 35.801-21.229 48.068-30.334 37.172-27.593 51.662-79.228 11.87-100.975zm-89.799 162.88c-3.696-.912-3.22-11.275 12.195-22.931-2.458 15.336-6.777 24.267-12.195 22.93z" style="fill:#dc0814"/></svg>