<?xml version="1.0" encoding="UTF-8"?>
<svg id="Layer_1" data-name="Layer 1" xmlns="http://www.w3.org/2000/svg" viewBox="0 0 769.13 574.08">
  <defs>
    <style>
      .cls-1 {
        fill: #038e47;
      }

      .cls-1, .cls-2, .cls-3, .cls-4, .cls-5 {
        stroke-width: 0px;
      }

      .cls-2 {
        fill: #5c4f46;
      }

      .cls-3 {
        fill: #faa23a;
      }

      .cls-4 {
        fill: #5a4e45;
      }

      .cls-5 {
        fill: #0db456;
      }
    </style>
  </defs>
  <path class="cls-1" d="M387.97,201.89c4.17-8.87,10.75-15.95,17.22-23.1,16.1-17.79,34.24-33.65,49.37-52.35,9.26-11.44,17.77-23.39,21.04-38.08,3.73-16.76-.05-31.86-12.42-43.88-17.14-16.65-41.64-14.16-59.24,5.31-5.64,6.24-10.18,13.26-14.72,20.29-1.29,2.01-2.61,4-4.3,6.59-4.62-8.09-8.91-15.69-13.31-23.24-8.61-14.78-20.99-23.88-38.52-24.36-20-.55-37.41,11.97-45.61,31.98-4.12,10.07-4.8,20.58-4.74,31.21-1.57.35-1.64-.82-2-1.63-16.2-36.56,9.69-81.33,49.43-85.86,19.82-2.26,37.25,2.87,52.54,15.51,1.43,1.18,2.38,2.3,4.3.38,10.52-10.55,23.13-17.22,37.87-19.76.35-.06.63-.58.94-.88,7.41,0,14.83,0,22.24,0,2.36,1.8,5.33,1.6,8,2.38,35.52,10.25,55.18,45.12,51.42,78.75-2.64,23.61-15.18,41.92-31.62,58.05-18.86,18.51-41.34,32.1-63.32,46.37-8.23,5.35-16.35,10.84-23.84,17.2-.25-.28-.5-.57-.75-.85Z"/>
  <path class="cls-3" d="M769.13,504.54c-2.47,3.66-4.19,7.9-8.16,10.38-6.01,3.75-13.71,2.54-20.91-3.38-5.22-4.3-10-9.02-13.96-14.56-1.29-1.81-2.74-3.52-4.62-4.88-2.8-2.03-3.55-4.94-2.16-8.09,1.18-2.69,3.16-3.44,5.85-1.69,5.94,3.87,13.18,3.63,18.83-.9,2.09-1.68,4.31-3.23,5.98-5.51,3.42-4.68,2.65-7.31-2.79-8.97-7.82-2.37-23.95,4.03-27.57,10.93-4.08,7.76-5.93,16.03-7.47,24.48-.6,3.31-.13,8.26-5.06,7.88-4.97-.39-4.42-5.32-4.29-8.86.47-12.52,2.6-24.94,2.52-37.5-.04-7.01-.16-14.02-.52-21.02-.15-2.93.82-4.64,3.6-5.35,1.71-.43,3.43-.78,5.66-1.28-1.13,12.56-.77,24.97-.76,37.7,3.21-8.51,10.53-11.94,18.13-14.5,7.14-2.41,14.68-2.87,21.51,1.07,10.17,5.86,10.1,17.56.44,24.35-5.79,4.07-11.74,7.43-19.22,8.09,2.93,6.03,7.83,9.74,12.56,13.33,5.44,4.13,10.37,2.81,14.09-3.17,2.18-3.52,4.4-5.52,8.32-2.42v3.87Z"/>
  <path class="cls-1" d="M266.62,326.99c-26.92,14.23-60.11,5.64-77.89-16.96-18.38-23.37-17.9-57.57,1.58-81.28,2.68-3.26,2.43-4.7-.23-7.67-18.54-20.65-24.08-44.64-15.14-70.81,9.03-26.44,28.68-41.76,55.93-46.88,27.92-5.24,51.18,5.06,71.64,23.17,18.28,16.18,31.82,36.2,45,56.48,8.5,13.08,16.43,26.57,26.72,38.4.25.29.22.82.45,1.78-11.33-6.18-20.46-14.36-29.37-22.82-16.11-15.3-31.14-31.74-48.51-45.7-11.86-9.53-24.36-17.92-39.73-20.88-22.74-4.38-45.71,9.06-51.07,30.11-2.9,11.39-1.01,21.99,5.87,31.61,6.58,9.2,15.16,16.16,24.63,22.13,3.53,2.23,7.03,4.51,11.32,7.26-4.23,2.48-8,4.7-11.78,6.92-7.21,4.22-14.87,7.72-21.16,13.4-22.11,19.99-18.96,54.12,6.65,71.42,11.92,8.06,25.19,11.05,39.47,10.1,1.86-.12,3.82-.92,5.64.27l-.03-.07Z"/>
  <path class="cls-1" d="M396.27,361.98c4.34,7.64,8.42,14.74,12.42,21.88,7.18,12.79,17.09,22.15,31.97,24.98,19.04,3.62,37.17-4.52,47.99-21.52,7.98-12.54,11.02-26.26,9.11-41.03-.08-.64-.19-1.28-.23-1.92-.02-.25.12-.51.34-1.41,6.56,11.79,8.71,23.95,6.73,36.58-7.96,50.79-64.52,72.3-104.82,39.89-3.01-2.42-4.45-2.27-7.24.21-21.44,19.13-46.14,24.67-73.05,14.55-27.15-10.21-41.84-31.19-45.55-59.62-3.7-28.36,8.52-50.94,27.26-70.82,17.86-18.94,39.73-32.62,61.34-46.64,10.12-6.57,20.41-12.91,29.52-20.9.29-.26.84-.22,1.97-.48-2.77,5.63-6.13,10.17-9.7,14.57-12.09,14.92-26.24,27.91-39.51,41.72-11.5,11.98-22.76,24.16-31.13,38.63-7.52,13.01-11.71,26.64-8.03,41.95,7.51,31.19,43.34,44.5,68.36,19.59,7.38-7.35,13.04-15.89,18.59-24.56,1.11-1.74,2.23-3.47,3.64-5.66Z"/>
  <path class="cls-5" d="M533.3,213.68c7.47-4.24,14.25-8.17,21.1-11.97,17.66-9.82,27.99-24.02,26.34-44.98-1.57-19.91-16.71-36.6-38.01-42.63-8.93-2.53-18.02-2.8-27.26-2.17,9.8-5.8,20.48-7.92,31.64-6.92,24.81,2.24,43.41,14.35,53.3,37.3,10.36,24.03,6.44,46.95-9.48,67.63-2.44,3.17-2.54,4.68.15,7.71,20.21,22.79,25.12,48.85,12.8,76.56-12.34,27.77-35.41,41.2-65.54,42.27-25.58.91-45.76-11.07-63.6-27.97-16.86-15.97-29.6-35.16-42.14-54.5-8.21-12.67-15.95-25.67-26.21-37.39,3.21-.17,5.11,1.75,7.14,3.11,10.77,7.2,20.02,16.19,29.23,25.2,14.73,14.41,28.88,29.46,45.33,42,11.09,8.45,22.81,15.65,36.88,18.14,26.8,4.74,51.95-15.05,51.53-40.7-.19-11.48-5.62-20.53-13.27-28.61-8.41-8.89-19.01-14.79-29.95-22.06Z"/>
  <path class="cls-2" d="M142.49,490.68c0,21.6-.11,41.89.1,62.18.04,3.71-1.03,4.54-4.58,4.51-12.51-.11-12.52.02-12.52-12.55,0-44.14.05-88.27-.09-132.41-.01-3.83,1.04-5.11,4.84-4.76,3.83.36,8.76-1.23,11.29.63,2.75,2.03.55,7.22.95,11,.06.58.06,1.16.09,1.86,1.97-.29,2.51-1.81,3.5-2.73,16.42-15.17,35.29-17.11,55.19-8.98,19.54,7.98,28.88,23.76,30.31,44.43.91,13.08-1.95,25.22-9.58,36.11-16.19,23.09-50.1,27.99-71.26,10.27-2.96-2.48-5.27-5.5-8.26-9.56ZM178.09,495.02c20.77-.01,35.28-15.15,35.41-36.94.12-21.67-14.96-37.56-35.56-37.46-20.56.1-35.39,15.64-35.44,37.14-.05,21.89,14.65,37.27,35.59,37.26Z"/>
  <path class="cls-4" d="M45.48,512.29c-16.06-.6-31.5-4.28-43.36-17.34-2.6-2.86-3.22-4.91.58-6.96.56-.3.99-.82,1.49-1.23,3.12-2.54,5.92-6.38,9.46-7.28,4.23-1.07,5.3,4.73,8.24,7.07,13.56,10.78,34.86,11.27,48.67,1.2,12.53-9.13,14.13-31.9-3.53-39.86-9.56-4.31-19.54-7.36-29.39-10.8-4.87-1.7-9.55-3.77-14.18-6.02-28.07-13.69-25.12-51.51-6.86-66.48,20.16-16.52,56.53-16.65,75.7.38q5.38,4.78.21,9.34c-.36.32-.73.63-1.09.95-2.67,2.33-5.01,5.82-8.09,6.68-3.66,1.02-4.83-4-7.46-6-12.47-9.53-34.57-8.78-46.37,1.56-9.25,8.12-10.46,27.22,1.81,34.97,7.3,4.62,15.31,7.39,23.41,10.04,8.55,2.8,17.02,5.74,25.06,9.91,27.16,14.09,24.97,53.29,4.49,68.22-11.43,8.33-24.33,11.29-38.78,11.64Z"/>
  <path class="cls-3" d="M437.25,495.32c1.81-3.33,3.65-6.15,4.92-9.2,1.74-4.16,5.3-6.05,9.01-7.47,4.32-1.65,9.98,2.43,10.42,7.26,1.14,12.39-2.88,26.11-15.66,31.74-2.65,1.17-2.5,3.85.38,5.16,8,3.63,17.04,4.62,24.66-3.29,4.23-4.39,7.52-8.99,8.19-15.25.26-2.44,1.32-5.07,4.42-4.74,3.32.35,3.3,3.4,2.93,5.65-2.08,12.93-8.97,22.87-20.88,28.09-6.32,2.77-13.63,1.17-20.2-1.34-1.65-.63-2.46-1.19-3.94.48-7.47,8.4-17.57,12.15-28.16,11.24-12.98-1.11-18.47-9.32-14.39-22.9.72-2.4,1.5-3.04-1.87-3.13-4.39-.11-6.39-5.16-4.52-10.13,1.43-3.79,3.69-7.12,6.18-10.25,3.86-4.86,7.77-9.74,13.02-13.21,6.7-4.43,14.65-2.54,20.96,4.9,1.54,1.82,2.78,3.9,4.5,6.36ZM415.33,535.72c6.28-1.93,13.55-1.03,18.52-6.84,2.32-2.71,1.65-7.53-1.54-9-6.72-3.09-13.18-4.67-20.34-.14-4.35,2.75-6.16,6.62-5.83,10.6.37,4.57,4.97,5.19,9.19,5.38ZM432.74,511.92c-2.53-4.84-1.83-8.78-3.1-12.42-2.1-5.99-7.68-9.87-11.7-7.29-5.92,3.8-11.44,8.24-14.98,14.57-1.37,2.46-2.67,9.04-2.27,10.71,9.01-8.01,18.79-12.35,32.05-5.57ZM442.29,510.07c6.88-2.41,12.87-14.39,10.47-20.53-.79-2.02-1.88-1.03-2.93-.31-2.48,1.69-2.45,4.69-3.63,7.05-2.14,4.3-3.98,8.73-3.9,13.78Z"/>
  <path class="cls-3" d="M577.89,500.51c0-4.3-.17-7.84.05-11.36.19-2.96-.51-4.27-3.76-3.48-2.63.64-5.37.83-8.05,1.3-2.37.41-4.42-.44-6.45-1.46-2.22-1.12-2.9-2.97-2.2-5.24.68-2.21,2.2-3.75,4.65-3.27,4.75.92,9.25-.31,13.85-1,2.08-.31,2.66-1.07,2.64-3.03-.07-9.84,2.95-19.18,4.92-28.67,1.85-8.88,13.25-14.91,22.11-12.27,3.15.94,8.05,7.56,7.91,10.67-.1,2.29-.93,3.96-3.37,4.65-2.5.71-3.14-1.17-3.86-2.67-1.03-2.15-2.23-4.34-4.86-3.8-3.06.63-6.71.19-8.34,4.28-3.32,8.32-4.52,17.06-5.78,25.81-.36,2.52.78,3.08,3,2.76,4.76-.7,9.54-1.21,14.36-1.02,2.3.09,4.64.12,4.97,3.28.35,3.31-2.43,3.82-4.37,4.05-5.42.64-10.61,2.18-15.91,3.29-2.11.44-3.31,1.18-3.38,3.24-.26,7.73-1.33,15.58-.38,23.17.99,7.9,2.41,15.89,5.17,23.55.97,2.7,1.61,5.72,2.11,8.64.39,2.29-.58,4.13-2.86,4.98-2.43.91-3.88-.99-4.54-2.55-1.49-3.53-3.58-6.86-4.06-10.79-1.39-11.26-4.97-22.28-3.58-33.06Z"/>
  <path class="cls-3" d="M335.56,554.69c1.89-10.41,6.86-18.77,8.04-28.32.64-5.18,4.23-8.84,7.42-12.49,2.01-2.29,8.12.71,10,4.62,2.14,4.46,4.37,8.88,6.29,13.44,1.88,4.49,5.91,6.88,9.17,10.02,1.08,1.04,2.57.67,3.33-.61,2.17-3.67,5.5-6.78,5.65-11.43.1-3.26,1.77-5.01,4.94-4.09,2.92.85,3.41,3.07,2.65,6.12-1.24,5.01-2.91,9.77-5.86,14-5.35,7.67-13.13,7.87-19.35.86-2.9-3.26-5.04-6.97-7.32-10.59-2.2-3.48-3.87-7.29-5.92-11.23-2.99,4.07-4.44,8.5-5.09,13.08-1.41,9.83-7.24,17.95-10.2,27.17-.57,1.78-2.46,3.28-4.6,2.86-2.6-.51-4.68-2.07-5.6-4.73-3.79-10.84-5.47-22.28-9.56-33.04-.84-2.22-1.48-5.18,1.4-6.22,2.6-.94,5.02-.32,6.63,2.97,4.11,8.41,5.09,17.64,7.99,27.63Z"/>
  <path class="cls-3" d="M654.04,487.36c-.95,10.92-7.85,20.42-20.56,25.61-2.86,1.17-5.21,3.57-8.92,2.89-8.24-1.5-10.81-4.68-11.91-13.16-.9-6.93,3.02-12.74,3.27-19.2.33-8.51,5.86-14,10.75-19.73,2.29-2.68,7.12-2.21,9.96-1.53,9.88,2.36,17.45,10.52,17.4,25.12ZM621.01,501.24c-.49,3.88.2,6.69,4.93,6.17,8.8-.97,20.34-10.8,20.16-21-.11-6.06-3.12-11.18-7.64-14.83-4.35-3.51-5.7.81-8.16,3.75-6.38,7.66-8.25,16.59-9.29,25.91Z"/>
  <path class="cls-3" d="M663.87,492.86c.54-16.58,2.63-33.08,1.77-49.67-.19-3.59.88-6,4.83-6.08,2.61-.06,4.93,3.84,4.75,7.22-.7,12.71-1.4,25.43-1.88,38.15-.16,4.17-1.33,8.25-.82,12.48.74,6.2,3.28,7.71,8.63,4.48,2.27-1.37,4.73-2.66,6.34-5.05,1.79-2.65,4.59-3.52,6.96-1.33,2.23,2.06,1.24,4.7-.72,6.82-3.88,4.22-8.79,7.06-13.94,9.14-8.45,3.41-12.72.65-15.01-9.01-.55-2.32-.62-4.76-.91-7.14Z"/>
  <path class="cls-3" d="M502.41,500.74c4.41-12.63,11.14-21.88,23.12-26.42,2.28-.87,4.51-1.05,6.13,1.04,1.05,1.36.99,3.5-.05,4.51-1.41,1.38-3.46,2.48-5.4,2.89-5.79,1.21-8.89,5.73-11.86,9.9-5.15,7.24-7.44,15.67-7.77,24.56-.03.91.17,2.14.76,2.71,1.84,1.78,2.19,3.54.44,5.43-1.64,1.77-3.27,3.28-6.22,2.6-2.88-.67-2.77-2.89-3.16-4.75-2.8-13.23-3.61-26.9-8.99-39.56-1.32-3.1,1.27-4.32,3.31-5.48,2.3-1.31,4.13-.36,5.03,1.94,2.45,6.25,4.34,12.66,4.64,20.63Z"/>
  <path class="cls-3" d="M256.1,574.08c-1.9-.07-3.49-.81-3.93-2.45-.53-1.96.94-3.4,2.6-3.99,8.56-3.07,17.17-6.01,25.78-8.94,1.64-.56,3.93-1.52,4.61.66.54,1.7-1.31,2.72-3.16,3.49-7.54,3.15-14.93,6.64-22.39,9.97-1.17.52-2.41.87-3.51,1.26Z"/>
  <path class="cls-1" d="M388.72,202.74c-.5.42-1,.85-1.5,1.27l.08.1c-.51-.96-.2-1.68.67-2.23.25.28.5.57.75.85Z"/>
  <path class="cls-1" d="M387.22,204.01c-.1.12-.19.26-.31.34-.05.04-.18-.03-.27-.05.22-.07.44-.14.66-.2,0,0-.08-.1-.08-.1Z"/>
  <path class="cls-1" d="M266.65,327.07c-.06-.13-.12-.25-.17-.38.04.09.08.19.13.29.01.01.04.08.04.08Z"/>
</svg>