<?xml version="1.0" encoding="UTF-8" standalone="no"?>
<svg
   xmlns:dc="http://purl.org/dc/elements/1.1/"
   xmlns:cc="http://creativecommons.org/ns#"
   xmlns:rdf="http://www.w3.org/1999/02/22-rdf-syntax-ns#"
   xmlns:svg="http://www.w3.org/2000/svg"
   xmlns="http://www.w3.org/2000/svg"
   viewBox="0 0 230.02667 211.61333"
   height="211.61333"
   width="230.02667"
   xml:space="preserve"
   id="svg2"
   version="1.1"><metadata
     id="metadata8"><rdf:RDF><cc:Work
         rdf:about=""><dc:format>image/svg+xml</dc:format><dc:type
           rdf:resource="http://purl.org/dc/dcmitype/StillImage" /></cc:Work></rdf:RDF></metadata><defs
     id="defs6" /><g
     transform="matrix(1.3333333,0,0,-1.3333333,0,211.61333)"
     id="g10"><g
       transform="scale(0.1)"
       id="g12"><path
         id="path14"
         style="fill:#006666;fill-opacity:1;fill-rule:nonzero;stroke:none"
         d="m 377.449,1267.17 c -27.273,-63.75 -42.429,-133.86 -42.429,-207.58 0,-222.07 137.214,-411.871 331.503,-489.699 L 377.449,1267.17 v 0" /><path
         id="path16"
         style="fill:#006666;fill-opacity:1;fill-rule:nonzero;stroke:none"
         d="m 862.5,1587.07 c -190.703,0 -357.773,-101.21 -450.391,-252.87 h 254.192 v -58.07 h -59.25 c 0,0 -15.535,0.21 -24.434,-11.81 -11.347,-15.32 -21.387,-47.86 7.305,-117.11 16.875,-40.71 172.805,-416.757 173.762,-419.101 0.195,-0.429 2.421,-5.839 2.421,-5.839 0.528,1.21 144.891,331.07 189.879,433.78 0,0 7.422,19.4 10.411,31.06 10.023,38.94 3.363,60.75 -6.524,73.09 -4.851,6.07 -11.172,10.89 -16.465,12.73 -10.867,3.75 -17.664,3.2 -17.664,3.2 h -42.246 v 58.07 h 303.474 v -58.07 c 0,0 -16.62,0 -64.68,0 -29.42,0 -48.37,-4.63 -75.13,-64.57 l -12,-27.46 c -1.58,-3.56 -272.57,-642.381 -272.57,-642.381 32.39,-6.207 65.73,-9.571 99.91,-9.571 291.29,0 527.44,236.157 527.44,527.462 0,291.33 -236.15,527.46 -527.44,527.46" /><path
         id="path18"
         style="fill:#006666;fill-opacity:1;fill-rule:nonzero;stroke:none"
         d="M 0,270.32 H 52.9102 L 125.625,88.3086 198.73,270.32 h 52.93 L 143.926,3.78906 H 107.742 L 0,270.32" /><path
         id="path20"
         style="fill:#006666;fill-opacity:1;fill-rule:nonzero;stroke:none"
         d="M 353.203,224.629 V 167.5 h 81.875 V 121.781 H 353.203 V 49.4805 H 465.527 V 3.78906 H 301.816 V 270.32 H 461.719 V 224.629 H 353.203" /><path
         id="path22"
         style="fill:#006666;fill-opacity:1;fill-rule:nonzero;stroke:none"
         d="m 533.926,270.32 h 36.172 L 718.594,96.6992 V 270.32 h 51.379 V 3.78906 H 733.809 L 585.313,177.41 V 3.78906 H 533.926 V 270.32" /><path
         id="path24"
         style="fill:#006666;fill-opacity:1;fill-rule:nonzero;stroke:none"
         d="M 858.203,74.9883 C 873.398,58.25 896.66,45.6914 920.996,45.6914 c 22.852,0 38.828,14.0391 38.828,33.4688 0,34.2618 -49.453,38.4808 -85.261,59.4418 -20.942,12.148 -37.7,30.429 -37.7,60.527 0,47.57 43.782,75 87.942,75 27.031,0 52.168,-6.488 77.325,-25.141 l -26.681,-38.066 c -10.644,9.887 -28.574,17.5 -46.094,17.5 -19.406,0 -41.093,-8.363 -41.093,-28.922 0,-43.031 122.978,-29.711 122.978,-119.5508 C 1011.24,32.7188 968.965,0 920.996,0 885.234,0 852.07,14.832 824.68,39.9688 l 33.523,35.0195" /><path
         id="path26"
         style="fill:#006666;fill-opacity:1;fill-rule:nonzero;stroke:none"
         d="m 1239.94,270.32 v -45.691 h -70.42 V 3.78906 h -51.39 V 224.629 h -70.43 v 45.691 h 192.24" /><path
         id="path28"
         style="fill:#006666;fill-opacity:1;fill-rule:nonzero;stroke:none"
         d="m 1390.59,167.5 c 14.86,0 21.34,3.07 25.91,7.988 4.56,4.961 7.62,12.582 7.62,20.203 0,7.989 -3.06,15.618 -7.62,20.559 -4.57,4.93 -11.05,8.379 -25.91,8.379 h -42.64 V 167.5 Z m -42.64,-45.699 V 3.78906 h -51.39 V 270.32 h 97.09 c 27.41,0 44.91,-7.621 58.24,-19.789 14.5,-13.711 23.62,-33.16 23.62,-54.449 0,-21.332 -9.12,-40.742 -23.62,-54.473 -7.2,-6.82 -15.97,-12.168 -26.63,-15.589 L 1525.02,3.78906 h -63.59 L 1366.62,121.801 h -18.67" /><path
         id="path30"
         style="fill:#006666;fill-opacity:1;fill-rule:nonzero;stroke:none"
         d="M 1612.83,224.629 V 167.5 h 81.88 v -45.719 h -81.88 V 49.4805 h 112.33 V 3.78906 H 1561.44 V 270.32 h 159.93 v -45.691 h -108.54" /></g></g></svg>