<?xml version="1.0" encoding="UTF-8"?>
<svg xmlns="http://www.w3.org/2000/svg" viewBox="0 0 1019.37 1019.37">
  <defs>
    <style>
      .cls-1 {
        stroke-width: 140px;
      }

      .cls-1, .cls-2 {
        fill: none;
        stroke: #3e643f;
        stroke-miterlimit: 10;
      }

      .cls-3 {
        fill: #fff;
      }

      .cls-3, .cls-4, .cls-5 {
        stroke-width: 0px;
      }

      .cls-4 {
        fill: #3e643f;
      }

      .cls-2 {
        stroke-width: 41px;
      }

      .cls-5 {
        fill: #ffba05;
      }
    </style>
  </defs>
  <g id="Background">
    <circle class="cls-3" cx="509.69" cy="509.69" r="439.69"/>
  </g>
  <g id="BasketBallLines">
    <g id="_Økern" data-name="Økern">
      <g>
        <path class="cls-4" d="m502.04,703.42c0,62.36,0,124.72,0,187.08,0,8.36-2.08,10.43-10.46,10.44-9.94,0-19.88.03-29.82,0-7.22-.03-9.78-2.45-9.82-9.68-.09-16.55-.03-33.1-.03-49.64,0-65.32-.07-130.64.13-195.96.02-5.42-1.51-6.58-6.7-6.55-40.45.22-80.91.2-121.36,0-4.83-.02-6.05,1.3-6.04,6.07.15,81,.11,162,.09,242.99,0,2.43.24,4.98-.38,7.27-1.01,3.8-3.92,5.52-7.88,5.52-28.07-.02-56.15.03-84.22-.04-5.39-.01-8.3-3.02-8.36-8.53-.12-11.5-.15-22.99.02-34.49.05-3.31-.93-5.36-3.78-7.25-28.55-18.94-46.46-45.34-52.89-78.86-9.57-49.9,13.02-101.06,58.73-127.63,4.21-2.45,7.76-1.73,11.67.69,35.65,21.99,56.31,53.74,59.23,95.45,3.25,46.46-15.63,83.14-53.73,109.83-3.28,2.3-4.6,4.51-4.44,8.45.31,7.83.22,15.68.03,23.51-.08,3.18.94,4.21,4.15,4.19,20.92-.11,41.85-.13,62.77.01,3.47.02,4.46-1.06,4.42-4.46-.16-13.58-.07-27.17-.07-40.76,0-68.46,0-136.91,0-205.37,0-9.14,1.81-10.93,11.03-10.93,47.25,0,94.51,0,141.76,0,8.65,0,10.71,2.06,10.71,10.84.01,81.35.05,162.69-.1,244.04,0,5.09.98,6.88,6.5,6.72,14.36-.42,14.37-.12,14.37-14.48,0-120.54.04-131.08-.12-251.62,0-6.3,2.08-10.11,7.2-13.73,44.5-31.47,88.8-63.2,133.16-94.86,3.01-2.15,5.89-4.35,9.98-2.18,3.95,2.1,4.18,5.53,4.18,9.33-.03,55.04.03.09-.13,55.13-.01,4.61,1.11,7.05,5.58,8.98,22.99,9.92,45.75,20.38,68.73,30.32,5.6,2.42,7.8,5.66,7.79,11.84-.17,84.66-.12,169.31-.1,253.97,0,7.75-1.12,7.13,7.37,7.14,19.36.03,38.71-.17,58.06.13,5.16.08,6.55-1.53,6.26-6.47-.42-7.12-.3-14.28-.03-21.42.14-3.74-1.14-5.98-4.28-8.08-27.15-18.12-44.39-43.16-51.82-74.94-11.78-50.37,12.4-105.34,57.47-130.96,4.14-2.36,7.66-2.44,11.66.04,37.11,23.03,58.15,55.95,59.83,99.83,1.74,45.34-17.37,80.64-54.61,106.25-3.16,2.17-4.23,4.42-4.16,8.08.2,11.32.12,22.64.05,33.97-.03,5.86-2.34,8.26-8.23,8.27-27.72.06-55.45.06-83.17,0-6.68-.01-8.72-2.45-8.72-9.99,0-80.48,0-160.95,0-241.43,0-6.1-.19-12.2.07-18.29.16-3.55-1.3-5.27-4.43-6.64-19.29-8.45-38.51-17.07-57.76-25.62-5.45-2.42-5.47-2.4-5.47,3.62,0,95.46,0,190.91,0,286.37,0,10.25-1.78,12-12.18,12.01-10.81,0-21.62.04-32.43-.01-6.57-.03-9.25-2.65-9.25-9.1-.02-107.48-.02-214.95,0-322.43,0-7.62,4.7-10.73,11.76-7.74,7.68,3.26,15.33,6.61,22.87,10.19,3.67,1.74,4.54.63,4.54-3.01-.05-47.73-.03,14.54-.06-33.18,0-1.28.69-3.07-.94-3.71-1.43-.56-2.51.87-3.59,1.64-39.14,27.88-78.23,55.83-117.43,83.62-2.95,2.09-3.21,4.52-3.21,7.57.04,62.88.03,15.77.03,78.65Zm307.68,130.73c2.31.37,3.32-.99,4.48-1.93,25.16-20.57,39.09-47.29,39.88-79.53.94-38.54-15.32-69.25-46.92-91.7-3.15-2.24-5.48-2.47-8.77-.09-33.05,23.89-49.32,55.93-46.62,96.78,2,30.26,15.96,54.65,38.88,74.15,1.11.95,2.21,2.7,3.96,1.73,1.39-.77.82-2.52.83-3.84.04-10.1-.47-20.23.17-30.29.59-9.23-.95-17.07-8.57-23.13-2.55-2.03-4.46-4.87-6.65-7.34-4.01-4.51-4.46-8.82-1.25-11.98,3.34-3.28,7.81-2.57,12.1,2.13,2.22,2.43,3.58,3.93,4.75-.86.96-3.93,4.38-5.37,8.24-4.58,3.65.75,5.53,3.17,5.48,7.13-.11,8.53-.07,17.06,0,25.6.01,1.23-.72,2.76.89,3.83.75-.42,1.5-.83,2.23-1.27,4.84-2.96,8.5-2.7,11.12.79,2.53,3.36,1.48,7.89-2.7,11.34-2.95,2.44-5.99,4.77-8.96,7.19-1.19.97-2.59,1.79-2.59,3.67.02,7.42,0,14.83,0,22.23Zm-576.87-72.44c1.98-.54,2.73-2.27,3.92-3.44,3.69-3.64,7.99-4.33,11.1-1.7,3.39,2.88,3.38,7.48-.18,11.52-4.25,4.83-8.63,9.56-12.91,14.37-1.25,1.41-2.71,2.68-2.71,4.87.03,14.63.02,29.26,0,43.89,0,3.23,1.38,3.11,3.44,1.5.82-.64,1.63-1.31,2.42-1.99,54.27-46.2,49.97-128.98-8.71-169.65-3.44-2.39-5.77-2.29-9.21,0-53.77,35.98-62.81,113.19-18.58,160.28,4.55,4.85,9.11,9.81,15.77,13.39,0-6.24-.37-11.8.11-17.28.48-5.43-.98-9.31-5.83-12.12-2.68-1.55-5.07-3.71-7.29-5.9-3.02-2.99-3.28-6.59-.63-9.89,2.48-3.09,6.05-3.92,9.29-1.55,4.76,3.49,4.4.5,4.37-2.88-.07-7.31.05-14.63-.05-21.94-.07-4.59.93-8.58,6.04-9.54,5.08-.96,7.74,2.03,8.9,6.69.11.44.43.82.73,1.36Zm369.82-29.08c0,49.44.04,98.89-.08,148.33,0,3.98.88,5.7,5.18,5.33,4.32-.37,8.74-.44,13.05,0,5.24.54,6.69-1.1,6.68-6.52-.19-81.48-.13-162.96-.13-244.44,0-13.75-.1-27.51.07-41.26.04-3.12-1.02-4.78-3.83-5.91-5-2.01-9.9-4.27-14.83-6.45-6.09-2.69-6.11-2.7-6.12,4.13,0,48.92,0,97.84,0,146.77Z"/>
        <path class="cls-4" d="m524.39,681.95c11.66.13,10.2-1.51,10.26,10.28.05,11.25.01,11.32-11.38,11.23-11.79-.09-10.06,1.66-10.15-10.27-.08-11.25-.02-11.25,11.27-11.24Z"/>
        <path class="cls-4" d="m523.44,668.29c-10.34,0-10.41,0-10.32-10.5.11-12.15-1.75-10.32,10.45-10.42,11.09-.09,11.09-.02,11.09,11.32q0,9.6-11.22,9.6Z"/>
        <path class="cls-4" d="m534.66,728q0,10.45-10.49,10.45-11.07,0-11.07-10.93,0-10.35,10.51-10.35,11.05,0,11.05,10.83Z"/>
        <path class="cls-4" d="m523.67,808.28q-10.58,0-10.58-10.81,0-10.48,10.49-10.48,11.08,0,11.08,10.91,0,10.39-10.98,10.39Z"/>
        <path class="cls-4" d="m332.85,777.92q0-10.34,10.48-10.34,10.84,0,10.84,11.06,0,10.02-10.29,10.02c-.17,0-.35,0-.52,0q-10.51,0-10.51-10.74Z"/>
        <path class="cls-4" d="m343.58,732.65q10.58,0,10.58,10.77,0,10.23-10.51,10.23-10.81,0-10.81-10.95,0-10.06,10.73-10.06Z"/>
        <path class="cls-4" d="m343.59,662.88q10.57,0,10.57,10.74,0,10.1-10.26,10.1-11.06,0-11.06-10.82,0-10.02,10.74-10.02Z"/>
        <path class="cls-4" d="m682.53,694.24q-10.3,0-10.3-10.42,0-10.93,10.84-10.93,10.35,0,10.35,10.42,0,10.92-10.88,10.92Z"/>
        <path class="cls-4" d="m343.35,697.84q10.82,0,10.82,10.94,0,10.02-10.27,10.02-11.05,0-11.05-11.29,0-9.67,10.5-9.67Z"/>
        <path class="cls-4" d="m343.59,823.72q-10.74,0-10.74-10.62,0-10.23,10.02-10.23,11.3,0,11.3,11.07,0,9.78-10.58,9.78Z"/>
        <path class="cls-4" d="m682.87,742.95q10.53,0,10.53,10.68,0,10.32-10.43,10.32-10.76,0-10.76-11,0-10.01,10.65-10.01Z"/>
        <path class="cls-4" d="m523.97,773.28q-10.87,0-10.87-10.98,0-10.15,10.13-10.15,11.43,0,11.43,11.5,0,9.63-10.69,9.63Z"/>
        <path class="cls-4" d="m693.4,648.54q0,10.5-10.72,10.5-10.46,0-10.46-10.71,0-10.5,10.67-10.5,10.51,0,10.51,10.72Z"/>
        <path class="cls-4" d="m682.74,777.81q10.66,0,10.66,10.62,0,10.36-10.31,10.36-10.87,0-10.87-10.8,0-10.18,10.52-10.18Z"/>
        <path class="cls-4" d="m682.48,728.84q-10.26,0-10.26-10.45,0-10.3,10.36-10.3,10.82,0,10.82,10.91,0,9.84-10.92,9.84Z"/>
      </g>
    </g>
    <g>
      <path class="cls-5" d="m70.66,510.78c0-244.54,198.24-442.79,442.79-442.79s442.79,198.24,442.79,442.79"/>
      <line class="cls-2" x1="70" y1="509.69" x2="949.37" y2="509.69"/>
      <line class="cls-2" x1="513.44" y1="509.69" x2="513.44" y2="79.14"/>
      <path class="cls-2" d="m634.09,509.69c0-155.81,126.31-282.12,282.12-282.12"/>
      <path class="cls-2" d="m106.69,226.34c155.81,0,282.12,126.31,282.12,282.12"/>
    </g>
  </g>
  <g id="Outline">
    <circle class="cls-1" cx="509.69" cy="509.69" r="439.69"/>
  </g>
  <g id="Text">
    <g>
      <g>
        <path class="cls-3" d="m176.72,259.82c-8.38,1.13-16.44-1.51-24.19-7.91-7.05-5.82-11.16-12.56-12.33-20.22-1.18-7.66.98-14.81,6.46-21.45,3.15-3.82,6.49-6.57,10.01-8.26l-2.51-7.24,5.9-7.14,4.21,12.08c8.35-1.19,16.37,1.39,24.05,7.73,7.38,6.1,11.58,13.03,12.58,20.79,1,7.76-1.09,14.77-6.25,21.02-3.06,3.7-6.47,6.45-10.23,8.25l2.57,7.37-6,7.26-4.26-12.3Zm-6.82-19.66l-8.34-24.07c-1.6.28-2.95,1.08-4.05,2.41-3.87,4.68-1.28,10.75,7.77,18.23,1.33,1.1,2.87,2.24,4.63,3.43Zm1.12-21.08l8.49,24.37c1.69-.24,3.15-1.11,4.38-2.6,1.98-2.4,2.36-4.98,1.14-7.76-1.22-2.78-4.61-6.47-10.17-11.06-1.13-.93-2.41-1.92-3.84-2.95Z"/>
        <path class="cls-3" d="m254.52,187.79l-14.83,13.63-22.97-9.67,1.39,10.71,9.37,10.19-12.78,11.75-40.59-44.17,12.78-11.75,16.78,18.26-4.6-29.46,12.18-11.2,3.7,26.42,39.57,15.28Z"/>
        <path class="cls-3" d="m284.3,149.68l8.29,11.68-36.81,26.12-34.71-48.92,36.81-26.12,8.01,11.29-22.08,15.67,5.04,7.1,17.85-12.66,7.71,10.86-17.85,12.66,5.67,7.99,22.08-15.67Z"/>
        <path class="cls-3" d="m342.68,134.46l-18.04,9.55-18.48-16.17-5.13,2.72,10.73,20.27-16.27,8.61-28.06-53.02,27.69-14.66c6.11-3.23,11.61-4.32,16.51-3.24,4.89,1.07,8.58,3.95,11.06,8.64,1.62,3.06,2.43,6.08,2.42,9.08,0,3-1.42,6.4-4.26,10.18l21.83,18.03Zm-47.65-15.25l6.95-3.68c2.05-1.08,3.46-2.38,4.25-3.89.79-1.51.75-3.1-.13-4.75-1.8-3.39-4.78-3.98-8.95-1.78l-7.5,3.97,5.37,10.14Z"/>
        <path class="cls-3" d="m395.13,115.4l-14.1,5.07-24.43-19.38c-3.13-2.48-6.53-5.65-10.2-9.5,2.22,3.31,3.78,6.24,4.7,8.77l9.83,27.33-14.06,5.06-20.3-56.44,16.38-5.89,20.59,15.94c4.1,3.17,7.38,6.06,9.85,8.69-2.62-4.51-4.83-9.28-6.65-14.33l-6.01-16.71,14.1-5.07,20.3,56.44Z"/>
        <path class="cls-3" d="m421.72,108.77l-9.38-59.25,30.08-4.76c6.25-.99,11.06-.13,14.42,2.57,3.36,2.7,5.37,6.08,6.01,10.13.47,2.95.06,5.75-1.23,8.4-1.29,2.65-3.51,4.69-6.66,6.1,7.96.64,12.52,4.63,13.69,11.98.7,4.4-.04,8.54-2.19,12.43-2.16,3.89-7.67,6.53-16.52,7.93l-28.21,4.46Zm10.97-39.2l8.42-1.33c2.11-.33,3.52-1.1,4.22-2.31.7-1.21.95-2.42.76-3.63-.52-3.3-2.81-4.63-6.86-3.99l-8.12,1.28,1.58,9.98Zm3.69,23.35l8.85-1.4c2.2-.35,3.73-1.15,4.58-2.39.85-1.25,1.18-2.55.96-3.91-.22-1.36-.91-2.53-2.09-3.52-1.18-.98-3.1-1.27-5.76-.85l-8.25,1.3,1.7,10.76Z"/>
        <path class="cls-3" d="m508.17,99.91l-3.7-11.73-16.06.43-3.29,11.91-14.94.4,16.92-60.46,19.46-.52,20.4,59.46-18.78.5Zm-16.99-24.47l9.7-.26-5.31-17.27-4.39,17.52Z"/>
        <path class="cls-3" d="m524.32,81.97l17.32-1.37c.95,4.95,4.38,7.72,10.3,8.31,4.61.46,7.03-.54,7.28-2.99.13-1.28-.31-2.33-1.3-3.15-.99-.82-2.83-1.64-5.52-2.47-10.27-3.05-16.73-6.34-19.38-9.87-2.65-3.53-3.76-7.49-3.32-11.86.56-5.63,3.16-10.1,7.8-13.4,4.64-3.31,10.97-4.56,18.99-3.77,12.16,1.21,19.7,6.89,22.64,17.05l-15.63,3.08c-1.18-4.15-4.17-6.46-8.98-6.94-4-.4-6.11.64-6.36,3.12-.11,1.11.26,2.01,1.1,2.71.84.7,2.53,1.46,5.07,2.27,6.99,2.22,11.93,4.06,14.82,5.52,2.89,1.46,5.2,3.7,6.93,6.71,1.73,3.01,2.41,6.43,2.03,10.25-.6,6.04-3.54,10.69-8.81,13.95-5.27,3.26-11.88,4.5-19.84,3.7-14.55-1.45-22.92-8.4-25.13-20.87Z"/>
        <path class="cls-3" d="m632.01,117.43l-19.62-4.57-4.96-24.43-8.06,7.19-3.14,13.48-16.91-3.94,13.6-58.42,16.91,3.94-5.62,24.16,21.74-20.41,16.12,3.75-19.73,17.95,9.68,41.3Z"/>
        <path class="cls-3" d="m680.23,120.62l-5,13.43-42.3-15.75,20.93-56.22,42.3,15.75-4.83,12.97-25.37-9.44-3.04,8.15,20.51,7.64-4.65,12.48-20.51-7.64-3.42,9.18,25.37,9.44Z"/>
        <path class="cls-3" d="m721.3,106.37l-20.45,40.78-15.6-7.82,20.45-40.78-11.12-5.57,6.44-12.85,37.83,18.97-6.44,12.85-11.12-5.57Z"/>
        <path class="cls-3" d="m713.64,153.52l32.81-50.22,25.49,16.66c5.3,3.46,8.29,7.32,8.97,11.58.68,4.26-.1,8.11-2.34,11.54-1.63,2.5-3.82,4.3-6.55,5.41-2.73,1.1-5.75,1.12-9.04.05,5.47,5.82,6.17,11.84,2.1,18.07-2.44,3.73-5.76,6.31-9.97,7.74s-10.06-.3-17.57-5.21l-23.91-15.62Zm21.51-1.9l7.5,4.9c1.86,1.22,3.53,1.65,5,1.3,1.47-.35,2.58-1.1,3.34-2.26.75-1.15,1.02-2.49.81-4.01-.21-1.52-1.45-3.02-3.7-4.49l-6.99-4.57-5.96,9.12Zm12.93-19.79l7.14,4.66c1.79,1.17,3.35,1.54,4.68,1.11,1.33-.43,2.33-1.15,3-2.19,1.83-2.8,1.02-5.32-2.41-7.56l-6.88-4.5-5.53,8.46Z"/>
        <path class="cls-3" d="m783.67,204.96l5.13-11.18-12.19-10.47-10.43,6.62-11.34-9.74,53.12-33.45,14.77,12.68-24.8,57.77-14.26-12.24Zm3.84-29.54l7.36,6.32,7.65-16.36-15.02,10.04Z"/>
        <path class="cls-3" d="m838.23,240.04l-10.85,9.95-28.41-31.01,44.22-40.53,12.44,13.58-33.37,30.58,15.97,17.43Z"/>
        <path class="cls-3" d="m865.93,277.8l-11.88,8.7-24.85-33.93,48.39-35.44,10.88,14.85-36.52,26.74,13.97,19.07Z"/>
      </g>
      <g>
        <path class="cls-3" d="m284.82,852.36l-34.08,49.37-15.15-10.46,34.08-49.37,15.15,10.46Z"/>
        <path class="cls-3" d="m264.35,911.1l28.52-52.77,20.41,11.03c8.87,4.79,14.08,11.01,15.65,18.65,1.57,7.64.48,14.91-3.25,21.82-4.26,7.89-10.09,13.02-17.49,15.4-7.4,2.38-14.87,1.53-22.42-2.55l-21.42-11.58Zm22.76-3.38l4.21,2.28c2.68,1.45,5.65,1.37,8.9-.24,3.25-1.61,6.09-4.65,8.51-9.14,2.08-3.84,3.05-7.59,2.92-11.26-.13-3.67-1.74-6.34-4.84-8.01l-4.21-2.28-15.48,28.65Z"/>
        <path class="cls-3" d="m376.28,961.01l-19.2-6.92-.46-24.55-5.46-1.97-7.78,21.58-17.32-6.25,20.35-56.43,29.48,10.63c6.5,2.34,11.01,5.69,13.5,10.03,2.5,4.34,2.85,9.01,1.05,14-1.17,3.25-2.87,5.89-5.09,7.9-2.22,2.02-5.69,3.25-10.4,3.7l1.34,28.28Zm-20.77-45.52l7.4,2.67c2.18.79,4.09.96,5.74.53s2.79-1.53,3.43-3.29c1.3-3.61-.27-6.22-4.7-7.82l-7.98-2.88-3.89,10.79Z"/>
        <path class="cls-3" d="m439.35,960.31l-2.94,14.02-44.17-9.27,12.32-58.71,44.17,9.27-2.84,13.55-26.49-5.56-1.79,8.52,21.42,4.49-2.73,13.03-21.42-4.49-2.01,9.59,26.49,5.56Z"/>
        <path class="cls-3" d="m478.76,932.75l-4.21,45.42-17.37-1.61,4.21-45.42-12.38-1.15,1.33-14.31,42.14,3.9-1.33,14.31-12.38-1.15Z"/>
        <path class="cls-3" d="m522.11,933.61l.74,45.61-17.44.28-.74-45.61-12.43.2-.23-14.37,42.31-.69.23,14.37-12.43.2Z"/>
        <path class="cls-3" d="m539.61,961.94l16.57-5.22c2.04,4.61,6.01,6.54,11.91,5.79,4.59-.59,6.73-2.1,6.42-4.54-.16-1.28-.82-2.21-1.97-2.78s-3.13-.96-5.93-1.17c-10.69-.66-17.72-2.42-21.1-5.27-3.38-2.85-5.34-6.45-5.9-10.81-.72-5.61.81-10.55,4.59-14.81,3.78-4.27,9.67-6.91,17.66-7.93,12.12-1.55,20.75,2.29,25.89,11.53l-14.54,6.51c-2.08-3.78-5.52-5.36-10.31-4.75-3.98.51-5.81,2-5.5,4.47.14,1.1.7,1.9,1.68,2.4.98.5,2.8.85,5.45,1.07,7.31.59,12.54,1.28,15.68,2.05,3.14.78,5.89,2.44,8.26,4.99,2.36,2.55,3.79,5.73,4.28,9.54.77,6.02-1.05,11.21-5.45,15.57-4.4,4.36-10.57,7.05-18.5,8.07-14.5,1.86-24.23-3.04-29.17-14.7Z"/>
        <path class="cls-3" d="m645.91,944.53l3.67,14.25-40.72,10.5-14.97-58.09,17.83-4.6,11.3,43.83,22.89-5.9Z"/>
        <path class="cls-3" d="m693.21,942.28l-7.54-9.71-14.92,5.98,1.05,12.31-13.88,5.56-5.12-62.57,18.07-7.24,39.77,48.69-17.44,6.99Zm-24.43-17.06l9.01-3.61-10.98-14.35,1.97,17.96Z"/>
        <path class="cls-3" d="m749.08,875.19l16.72,29.16-7.82,4.48c-1.87-1.8-3.61-3.21-5.22-4.25-.84,6.02-4.42,10.84-10.75,14.47-6.71,3.85-13.57,4.67-20.58,2.45-7.01-2.21-12.81-7.32-17.4-15.33-4.46-7.78-6.12-15.51-4.98-23.21,1.14-7.7,5.84-13.91,14.1-18.65,6.2-3.55,12.1-4.84,17.69-3.86,5.59.98,10.61,4.05,15.05,9.2l-14.6,10.4c-3.87-4.98-7.79-6.32-11.79-4.03-5.24,3-5,9.48.72,19.45,3.45,6.02,6.57,9.51,9.35,10.47,2.78.96,5.36.75,7.75-.62,1.93-1.11,3.24-2.63,3.93-4.58.69-1.95.46-3.95-.68-6l-8.62,4.94-6.34-11.06,23.45-13.44Z"/>
      </g>
    </g>
  </g>
</svg>