<?xml version="1.0" encoding="UTF-8"?>
<svg id="Layer_1" data-name="Layer 1" xmlns="http://www.w3.org/2000/svg" viewBox="0 0 933.74 933.74">
  <defs>
    <style>
      .cls-1, .cls-2 {
        stroke-width: 0px;
      }

      .cls-2 {
        fill: #fff;
      }

      .cls-3 {
        stroke-width: 128.24px;
      }

      .cls-3, .cls-4 {
        fill: none;
        stroke: #000;
        stroke-miterlimit: 10;
      }

      .cls-4 {
        stroke-width: 37.56px;
      }
    </style>
  </defs>
  <circle id="BG" class="cls-2" cx="466.87" cy="466.87" r="402.75"/>
  <g id="_Økern" data-name="Økern">
    <path class="cls-1" d="m459.87,644.33c0,57.12,0,114.24,0,171.36,0,7.65-1.91,9.55-9.58,9.56-9.1,0-18.21.03-27.31,0-6.61-.02-8.96-2.24-9-8.87-.08-15.16-.03-30.32-.03-45.47,0-59.83-.07-119.67.12-179.5.02-4.97-1.38-6.03-6.14-6-37.05.2-74.11.19-111.17,0-4.42-.02-5.54,1.19-5.54,5.56.13,74.19.1,148.39.08,222.58,0,2.23.22,4.56-.34,6.66-.93,3.48-3.59,5.05-7.22,5.05-25.72-.02-51.43.03-77.15-.04-4.94-.01-7.6-2.77-7.65-7.82-.11-10.53-.14-21.06.02-31.59.04-3.03-.85-4.91-3.46-6.64-26.15-17.35-42.56-41.53-48.45-72.24-8.77-45.71,11.93-92.57,53.79-116.9,3.86-2.24,7.11-1.58,10.69.63,32.65,20.15,51.58,49.23,54.25,87.43,2.98,42.55-14.31,76.15-49.22,100.61-3,2.1-4.21,4.14-4.07,7.74.28,7.17.2,14.36.03,21.54-.07,2.91.86,3.86,3.8,3.84,19.17-.11,38.33-.12,57.5.01,3.18.02,4.09-.97,4.05-4.08-.15-12.44-.06-24.89-.06-37.34,0-62.71,0-125.41,0-188.12,0-8.37,1.65-10.01,10.11-10.01,43.28,0,86.57,0,129.85,0,7.92,0,9.81,1.89,9.81,9.93.01,74.51.05,149.03-.09,223.54,0,4.66.89,6.3,5.96,6.15,13.15-.38,13.16-.11,13.16-13.26,0-110.41.04-120.07-.11-230.48,0-5.77,1.91-9.26,6.59-12.58,40.76-28.82,81.34-57.89,121.98-86.89,2.75-1.96,5.4-3.99,9.14-2,3.62,1.93,3.83,5.06,3.83,8.55-.03,50.42.03.08-.12,50.5-.01,4.22,1.01,6.45,5.11,8.22,21.06,9.08,41.9,18.67,62.96,27.77,5.13,2.22,7.14,5.18,7.13,10.84-.16,77.54-.11,155.09-.09,232.63,0,7.1-1.03,6.53,6.76,6.54,17.73.02,35.46-.16,53.19.12,4.72.07,6-1.4,5.74-5.93-.38-6.52-.27-13.08-.03-19.62.13-3.43-1.04-5.48-3.92-7.4-24.87-16.6-40.66-39.54-47.47-68.64-10.79-46.14,11.36-96.5,52.64-119.96,3.8-2.16,7.02-2.24,10.69.04,33.99,21.1,53.26,51.25,54.81,91.44,1.59,41.53-15.91,73.87-50.02,97.32-2.89,1.99-3.87,4.04-3.81,7.41.18,10.37.11,20.74.05,31.11-.03,5.37-2.15,7.56-7.54,7.58-25.4.06-50.79.05-76.19,0-6.12-.01-7.99-2.25-7.99-9.15,0-73.72,0-147.43,0-221.15,0-5.58-.18-11.18.07-16.75.14-3.25-1.19-4.83-4.06-6.08-17.67-7.74-35.28-15.63-52.91-23.47-4.99-2.22-5.01-2.2-5.01,3.32,0,87.44,0,174.87,0,262.31,0,9.39-1.63,11-11.15,11-9.9,0-19.81.03-29.71-.01-6.02-.03-8.48-2.43-8.48-8.34-.02-98.45-.02-196.89,0-295.34,0-6.98,4.31-9.83,10.77-7.09,7.04,2.99,14.04,6.06,20.94,9.33,3.36,1.6,4.16.58,4.16-2.76-.05-43.72-.03,13.32-.06-30.4,0-1.17.63-2.81-.86-3.4-1.31-.51-2.3.8-3.29,1.51-35.85,25.54-71.66,51.14-107.57,76.6-2.71,1.92-2.94,4.14-2.94,6.94.03,57.6.02,14.44.02,72.04Zm281.83,119.75c2.12.34,3.04-.9,4.1-1.77,23.04-18.84,35.81-43.31,36.53-72.85.86-35.3-14.03-63.44-42.98-84-2.88-2.05-5.02-2.26-8.03-.08-30.27,21.88-45.17,51.23-42.7,88.65,1.83,27.72,14.62,50.06,35.62,67.92,1.02.87,2.02,2.48,3.63,1.58,1.27-.71.75-2.3.76-3.52.04-9.25-.43-18.53.15-27.75.54-8.46-.87-15.63-7.85-21.19-2.33-1.86-4.08-4.46-6.09-6.72-3.67-4.13-4.08-8.08-1.14-10.97,3.06-3.01,7.16-2.36,11.08,1.95,2.03,2.23,3.28,3.6,4.35-.79.88-3.6,4.02-4.92,7.55-4.19,3.35.69,5.07,2.9,5.02,6.53-.1,7.81-.06,15.63,0,23.45.01,1.13-.66,2.53.81,3.51.68-.39,1.37-.76,2.04-1.17,4.43-2.71,7.79-2.47,10.19.72,2.31,3.08,1.36,7.23-2.47,10.39-2.7,2.23-5.49,4.37-8.21,6.58-1.09.89-2.38,1.64-2.37,3.36.02,6.79,0,13.58,0,20.36Zm-528.41-66.36c1.82-.49,2.5-2.08,3.59-3.15,3.38-3.33,7.32-3.97,10.17-1.55,3.11,2.64,3.1,6.85-.16,10.55-3.9,4.43-7.9,8.76-11.82,13.16-1.15,1.29-2.48,2.45-2.48,4.46.03,13.4.02,26.8,0,40.2,0,2.96,1.26,2.85,3.15,1.37.75-.59,1.49-1.2,2.22-1.82,49.71-42.32,45.77-118.14-7.98-155.4-3.15-2.19-5.29-2.1-8.43,0-49.25,32.96-57.53,103.68-17.02,146.81,4.17,4.44,8.34,8.99,14.45,12.26,0-5.72-.34-10.81.1-15.83.44-4.97-.9-8.53-5.34-11.1-2.45-1.42-4.65-3.4-6.68-5.41-2.76-2.74-3-6.03-.57-9.06,2.28-2.83,5.54-3.59,8.51-1.42,4.36,3.2,4.03.46,4-2.64-.07-6.7.05-13.4-.05-20.1-.06-4.2.85-7.86,5.53-8.74,4.66-.88,7.09,1.86,8.15,6.13.1.4.4.75.67,1.25Zm338.75-26.63c0,45.29.04,90.58-.07,135.87,0,3.65.8,5.22,4.75,4.88,3.96-.34,8.01-.4,11.96,0,4.8.5,6.13-1.01,6.12-5.97-.18-74.63-.12-149.27-.12-223.9,0-12.6-.09-25.2.07-37.79.04-2.85-.94-4.38-3.51-5.41-4.58-1.84-9.07-3.91-13.58-5.91-5.57-2.47-5.6-2.47-5.6,3.78,0,44.81,0,89.62,0,134.44Z"/>
    <path class="cls-1" d="m480.34,624.67c10.68.12,9.34-1.38,9.4,9.42.05,10.31.01,10.37-10.43,10.29-10.8-.08-9.21,1.52-9.29-9.41-.08-10.3-.02-10.3,10.33-10.3Z"/>
    <path class="cls-1" d="m479.47,612.15c-9.47,0-9.54,0-9.45-9.61.1-11.13-1.6-9.46,9.57-9.55,10.16-.08,10.16-.02,10.16,10.37q0,8.8-10.28,8.8Z"/>
    <path class="cls-1" d="m489.74,666.84q0,9.57-9.61,9.57-10.14,0-10.14-10.01,0-9.48,9.63-9.48,10.12,0,10.12,9.92Z"/>
    <path class="cls-1" d="m479.68,740.38q-9.69,0-9.69-9.91,0-9.6,9.6-9.6,10.14,0,10.14,9.99,0,9.51-10.06,9.51Z"/>
    <path class="cls-1" d="m304.89,712.57q0-9.47,9.6-9.47,9.93,0,9.93,10.13,0,9.17-9.42,9.17c-.16,0-.32,0-.48,0q-9.63,0-9.63-9.84Z"/>
    <path class="cls-1" d="m314.72,671.1q9.69,0,9.69,9.87,0,9.37-9.62,9.37-9.9,0-9.9-10.03,0-9.21,9.83-9.21Z"/>
    <path class="cls-1" d="m314.73,607.2q9.69,0,9.69,9.84,0,9.25-9.39,9.25-10.13,0-10.13-9.91,0-9.18,9.84-9.18Z"/>
    <path class="cls-1" d="m625.19,635.92q-9.44,0-9.44-9.54,0-10.01,9.93-10.01,9.48,0,9.48,9.54,0,10.01-9.96,10.01Z"/>
    <path class="cls-1" d="m314.5,639.22q9.91,0,9.91,10.02,0,9.18-9.41,9.18-10.12,0-10.12-10.34,0-8.86,9.62-8.86Z"/>
    <path class="cls-1" d="m314.73,754.52q-9.84,0-9.84-9.73,0-9.37,9.18-9.37,10.35,0,10.35,10.14,0,8.96-9.69,8.96Z"/>
    <path class="cls-1" d="m625.5,680.54q9.65,0,9.65,9.79,0,9.45-9.55,9.45-9.85,0-9.85-10.07,0-9.17,9.75-9.17Z"/>
    <path class="cls-1" d="m479.96,708.32q-9.96,0-9.96-10.05,0-9.3,9.28-9.3,10.47,0,10.47,10.53,0,8.82-9.79,8.82Z"/>
    <path class="cls-1" d="m635.15,594.06q0,9.61-9.82,9.61-9.59,0-9.59-9.81,0-9.62,9.77-9.62t9.63,9.82Z"/>
    <path class="cls-1" d="m625.39,712.47q9.77,0,9.77,9.73,0,9.49-9.44,9.49-9.96,0-9.96-9.89,0-9.32,9.64-9.32Z"/>
    <path class="cls-1" d="m625.15,667.62q-9.4,0-9.4-9.57t9.49-9.43q9.91,0,9.91,10,0,9.01-10,9.01Z"/>
  </g>
  <g id="Basketball">
    <line class="cls-4" x1="64.12" y1="466.87" x2="869.62" y2="466.87"/>
    <line class="cls-4" x1="470.31" y1="466.87" x2="470.31" y2="72.49"/>
    <path class="cls-4" d="m580.82,466.87c0-142.72,115.7-258.42,258.42-258.42"/>
    <path class="cls-4" d="m97.73,207.33c142.72,0,258.42,115.7,258.42,258.42"/>
  </g>
  <circle id="Outline" class="cls-3" cx="466.87" cy="466.87" r="402.75"/>
</svg>