<?xml version="1.0" encoding="UTF-8"?>
<svg id="Layer_1" data-name="Layer 1" xmlns="http://www.w3.org/2000/svg" viewBox="0 0 883.01 883.01">
  <defs>
    <style>
      .cls-1, .cls-2 {
        stroke-width: 0px;
      }

      .cls-3 {
        font-family: FranklinGothic-Heavy, 'Franklin Gothic Heavy';
        font-size: 77.96px;
        font-weight: 800;
      }

      .cls-3, .cls-2 {
        fill: #fff;
      }

      .cls-4 {
        stroke-width: 35.52px;
      }

      .cls-4, .cls-5 {
        fill: none;
        stroke: #000;
        stroke-miterlimit: 10;
      }

      .cls-5 {
        stroke-width: 121.27px;
      }
    </style>
  </defs>
  <circle id="BG" class="cls-2" cx="441.5" cy="441.5" r="380.87"/>
  <g id="_Økern" data-name="Økern">
    <path class="cls-1" d="m434.88,609.32c0,54.02,0,108.03,0,162.05,0,7.24-1.8,9.03-9.06,9.04-8.61,0-17.22.02-25.83,0-6.25-.02-8.48-2.12-8.51-8.39-.08-14.33-.03-28.67-.03-43,0-56.58-.06-113.17.12-169.75.01-4.7-1.31-5.7-5.8-5.68-35.04.19-70.08.18-105.13,0-4.18-.02-5.24,1.13-5.24,5.26.13,70.16.09,140.33.08,210.49,0,2.11.21,4.31-.33,6.3-.88,3.29-3.39,4.78-6.83,4.78-24.32-.02-48.64.03-72.95-.04-4.67-.01-7.19-2.62-7.24-7.39-.1-9.96-.13-19.92.02-29.87.04-2.87-.8-4.64-3.28-6.28-24.73-16.41-40.24-39.28-45.81-68.31-8.29-43.23,11.28-87.54,50.87-110.55,3.65-2.12,6.72-1.5,10.11.59,30.88,19.05,48.78,46.55,51.3,82.68,2.82,40.24-13.53,72.02-46.54,95.14-2.84,1.99-3.98,3.91-3.85,7.32.26,6.78.19,13.58.03,20.37-.07,2.75.82,3.65,3.6,3.63,18.12-.1,36.25-.11,54.38.01,3.01.02,3.87-.92,3.83-3.86-.14-11.77-.06-23.54-.06-35.31,0-59.3,0-118.6,0-177.9,0-7.92,1.56-9.47,9.56-9.47,40.93,0,81.87,0,122.8,0,7.49,0,9.27,1.78,9.28,9.39,0,70.46.05,140.93-.09,211.39,0,4.41.85,5.96,5.63,5.82,12.44-.36,12.45-.1,12.45-12.54,0-104.41.04-113.54-.11-217.96,0-5.46,1.8-8.76,6.24-11.9,38.54-27.26,76.92-54.75,115.35-82.17,2.6-1.86,5.1-3.77,8.64-1.89,3.42,1.82,3.62,4.79,3.62,8.08-.03,47.68.03.08-.11,47.76-.01,3.99.96,6.1,4.84,7.78,19.92,8.59,39.63,17.66,59.54,26.26,4.85,2.1,6.75,4.9,6.74,10.26-.15,73.33-.11,146.66-.09,220,0,6.71-.97,6.17,6.39,6.18,16.77.02,33.53-.15,50.3.11,4.47.07,5.67-1.32,5.42-5.61-.36-6.17-.26-12.37-.02-18.55.12-3.24-.99-5.18-3.7-7-23.52-15.7-38.45-37.39-44.89-64.91-10.21-43.64,10.75-91.25,49.78-113.44,3.59-2.04,6.64-2.11,10.1.04,32.14,19.95,50.37,48.46,51.83,86.48,1.51,39.28-15.05,69.85-47.3,92.03-2.74,1.88-3.66,3.83-3.61,7,.17,9.8.1,19.61.05,29.42-.03,5.08-2.03,7.15-7.13,7.16-24.02.05-48.03.05-72.05,0-5.79-.01-7.56-2.13-7.56-8.66,0-69.71,0-139.42,0-209.13,0-5.28-.17-10.57.06-15.84.13-3.08-1.13-4.57-3.84-5.75-16.71-7.32-33.36-14.78-50.03-22.19-4.72-2.1-4.74-2.08-4.74,3.14,0,82.69,0,165.37,0,248.06,0,8.88-1.54,10.4-10.55,10.4-9.36,0-18.73.03-28.09-.01-5.69-.03-8.02-2.3-8.02-7.88-.01-93.1-.02-186.2,0-279.29,0-6.6,4.07-9.3,10.18-6.7,6.65,2.82,13.28,5.73,19.81,8.83,3.18,1.51,3.94.54,3.93-2.61-.04-41.34-.02,12.6-.06-28.75,0-1.11.6-2.66-.81-3.22-1.24-.49-2.17.76-3.11,1.42-33.9,24.15-67.77,48.36-101.72,72.43-2.56,1.81-2.78,3.91-2.78,6.56.03,54.47.02,13.66.02,68.13Zm266.52,113.25c2,.32,2.88-.85,3.88-1.67,21.79-17.82,33.86-40.96,34.54-68.89.81-33.38-13.27-59.99-40.65-79.44-2.73-1.94-4.75-2.14-7.6-.08-28.63,20.69-42.72,48.45-40.38,83.83,1.73,26.21,13.83,47.34,33.68,64.23.96.82,1.91,2.34,3.43,1.5,1.2-.67.71-2.18.72-3.33.03-8.75-.41-17.52.15-26.24.51-8-.83-14.79-7.42-20.04-2.21-1.76-3.86-4.22-5.76-6.35-3.47-3.9-3.86-7.64-1.08-10.37,2.89-2.84,6.77-2.23,10.48,1.84,1.92,2.11,3.1,3.41,4.11-.75.83-3.4,3.8-4.65,7.14-3.97,3.17.65,4.79,2.74,4.75,6.17-.1,7.39-.06,14.78,0,22.17,0,1.07-.63,2.39.77,3.32.65-.37,1.3-.72,1.93-1.1,4.19-2.56,7.36-2.34,9.64.68,2.19,2.91,1.28,6.84-2.34,9.83-2.56,2.11-5.19,4.14-7.76,6.23-1.03.84-2.25,1.55-2.24,3.18.02,6.42,0,12.85,0,19.25Zm-499.7-62.75c1.72-.47,2.37-1.97,3.4-2.98,3.2-3.15,6.92-3.75,9.62-1.47,2.94,2.49,2.93,6.48-.16,9.98-3.68,4.19-7.47,8.28-11.18,12.45-1.08,1.22-2.35,2.32-2.35,4.22.03,12.67.01,25.35,0,38.02,0,2.8,1.2,2.69,2.98,1.3.71-.56,1.41-1.14,2.1-1.72,47.01-40.02,43.28-111.72-7.55-146.96-2.98-2.07-5-1.98-7.97,0-46.58,31.17-54.41,98.05-16.1,138.84,3.94,4.2,7.89,8.5,13.66,11.6,0-5.41-.32-10.22.09-14.97.41-4.7-.85-8.07-5.05-10.5-2.32-1.34-4.4-3.21-6.32-5.11-2.61-2.59-2.84-5.71-.54-8.56,2.15-2.68,5.24-3.4,8.05-1.34,4.13,3.02,3.81.43,3.78-2.5-.06-6.34.05-12.67-.04-19.01-.06-3.97.81-7.43,5.23-8.26,4.4-.83,6.71,1.76,7.71,5.79.09.38.38.71.63,1.18Zm320.35-25.19c0,42.83.04,85.66-.07,128.49,0,3.45.76,4.94,4.49,4.62,3.75-.32,7.57-.38,11.31,0,4.54.47,5.8-.95,5.78-5.64-.17-70.58-.12-141.16-.12-211.74,0-11.91-.09-23.83.06-35.74.03-2.7-.89-4.14-3.32-5.12-4.33-1.74-8.57-3.69-12.84-5.58-5.27-2.33-5.3-2.34-5.3,3.58,0,42.38,0,84.76,0,127.13Z"/>
    <path class="cls-1" d="m454.24,590.73c10.1.11,8.84-1.31,8.88,8.9.05,9.75,0,9.8-9.86,9.73-10.21-.08-8.71,1.44-8.79-8.9-.07-9.74-.02-9.74,9.77-9.74Z"/>
    <path class="cls-1" d="m453.42,578.89c-8.96,0-9.02,0-8.94-9.09.09-10.52-1.51-8.94,9.05-9.03,9.61-.08,9.61-.02,9.61,9.8q0,8.32-9.72,8.32Z"/>
    <path class="cls-1" d="m463.14,630.61q0,9.05-9.08,9.05-9.59,0-9.59-9.47,0-8.97,9.11-8.97,9.57,0,9.57,9.39Z"/>
    <path class="cls-1" d="m453.62,700.15q-9.16,0-9.16-9.37,0-9.08,9.08-9.08,9.59,0,9.59,9.45,0,9-9.51,9Z"/>
    <path class="cls-1" d="m288.32,673.85q0-8.96,9.07-8.96,9.39,0,9.39,9.58,0,8.68-8.91,8.68c-.15,0-.3,0-.45,0q-9.1,0-9.1-9.3Z"/>
    <path class="cls-1" d="m297.62,634.64q9.17,0,9.17,9.33,0,8.86-9.1,8.86-9.36,0-9.36-9.48,0-8.71,9.3-8.71Z"/>
    <path class="cls-1" d="m297.63,574.21q9.16,0,9.16,9.3,0,8.75-8.88,8.75-9.58,0-9.58-9.37,0-8.68,9.3-8.68Z"/>
    <path class="cls-1" d="m591.22,601.37q-8.93,0-8.93-9.02,0-9.46,9.39-9.46,8.96,0,8.96,9.02,0,9.46-9.42,9.46Z"/>
    <path class="cls-1" d="m297.42,604.49q9.37,0,9.37,9.47,0,8.68-8.9,8.68-9.57,0-9.57-9.78,0-8.38,9.09-8.38Z"/>
    <path class="cls-1" d="m297.63,713.53q-9.3,0-9.3-9.2,0-8.86,8.68-8.86,9.79,0,9.79,9.59,0,8.47-9.16,8.47Z"/>
    <path class="cls-1" d="m591.52,643.56q9.13,0,9.13,9.25,0,8.94-9.03,8.94-9.32,0-9.32-9.53,0-8.67,9.22-8.67Z"/>
    <path class="cls-1" d="m453.88,669.84q-9.42,0-9.42-9.51,0-8.79,8.78-8.79,9.9,0,9.9,9.96,0,8.34-9.26,8.34Z"/>
    <path class="cls-1" d="m600.65,561.78q0,9.09-9.28,9.09-9.06,0-9.06-9.28,0-9.1,9.24-9.1t9.11,9.29Z"/>
    <path class="cls-1" d="m591.41,673.76q9.24,0,9.24,9.2,0,8.98-8.93,8.98-9.42,0-9.42-9.36,0-8.82,9.11-8.82Z"/>
    <path class="cls-1" d="m591.19,631.34q-8.89,0-8.89-9.05t8.97-8.92q9.38,0,9.38,9.45,0,8.52-9.46,8.52Z"/>
  </g>
  <g id="Basketball">
    <line class="cls-4" x1="60.64" y1="441.5" x2="822.37" y2="441.5"/>
    <line class="cls-4" x1="444.76" y1="441.5" x2="444.76" y2="68.56"/>
    <path class="cls-4" d="m549.27,441.5c0-134.97,109.41-244.38,244.38-244.38"/>
    <path class="cls-4" d="m92.42,196.06c134.97,0,244.38,109.41,244.38,244.38"/>
  </g>
  <circle id="Outline" class="cls-5" cx="441.5" cy="441.5" r="380.87"/>
  <g id="Text">
    <text class="cls-3" transform="translate(147.32 237.83) rotate(-50.53)"><tspan x="0" y="0">Ø</tspan></text>
    <text class="cls-3" transform="translate(179.23 198.85) rotate(-42.68)"><tspan x="0" y="0">K</tspan></text>
    <text class="cls-3" transform="translate(214.44 166.35) rotate(-35.46)"><tspan x="0" y="0">E</tspan></text>
    <text class="cls-3" transform="translate(248.46 141.52) rotate(-28)"><tspan x="0" y="0">R</tspan></text>
    <text class="cls-3" transform="translate(292.68 117.73) rotate(-19.88)"><tspan x="0" y="0">N</tspan></text>
    <text class="cls-3" transform="translate(340.85 101.05) rotate(-14.35)"><tspan x="0" y="0"> </tspan></text>
    <text class="cls-3" transform="translate(357.27 96.02) rotate(-9.09)"><tspan x="0" y="0">B</tspan></text>
    <text class="cls-3" transform="translate(403.44 88.43) rotate(-1.62)"><tspan x="0" y="0">A</tspan></text>
    <text class="cls-3" transform="translate(449.92 86.98) rotate(5.58)"><tspan x="0" y="0">S</tspan></text>
    <text class="cls-3" transform="translate(493.83 90.93) rotate(13)"><tspan x="0" y="0">K</tspan></text>
    <text class="cls-3" transform="translate(540.47 101.67) rotate(20.32)"><tspan x="0" y="0">E</tspan></text>
    <text class="cls-3" transform="translate(580.41 116.55) rotate(26.53)"><tspan x="0" y="0">T</tspan></text>
    <text class="cls-3" transform="translate(610.87 131.15) rotate(33.06)"><tspan x="0" y="0">B</tspan></text>
    <text class="cls-3" transform="translate(650.18 156.5) rotate(40.54)"><tspan x="0" y="0">A</tspan></text>
    <text class="cls-3" transform="translate(685.61 186.87) rotate(47.4)"><tspan x="0" y="0">L</tspan></text>
    <text class="cls-3" transform="translate(712.25 215.61) rotate(53.69)"><tspan x="0" y="0">L</tspan></text>
    <text class="cls-3" transform="translate(209.39 778.93) rotate(32.55)"><tspan x="0" y="0">I</tspan></text>
    <text class="cls-3" transform="translate(232.45 794.34) rotate(26.68)"><tspan x="0" y="0">D</tspan></text>
    <text class="cls-3" transform="translate(283.22 819.59) rotate(18.6)"><tspan x="0" y="0">R</tspan></text>
    <text class="cls-3" transform="translate(337.64 837.37) rotate(11.08)"><tspan x="0" y="0">E</tspan></text>
    <text class="cls-3" transform="translate(385.05 846.25) rotate(4.91)"><tspan x="0" y="0">T</tspan></text>
    <text class="cls-3" transform="translate(424.25 849.6) rotate(-.93)"><tspan x="0" y="0">T</tspan></text>
    <text class="cls-3" transform="translate(464.79 849.17) rotate(-6.96)"><tspan x="0" y="0">S</tspan></text>
    <text class="cls-3" transform="translate(514.84 842.73) rotate(-13.7)"><tspan x="0" y="0">L</tspan></text>
    <text class="cls-3" transform="translate(558.78 832.05) rotate(-20.66)"><tspan x="0" y="0">A</tspan></text>
    <text class="cls-3" transform="translate(607.03 813.86) rotate(-28.19)"><tspan x="0" y="0">G</tspan></text>
  </g>
</svg>