<svg xmlns="http://www.w3.org/2000/svg" xmlns:xlink="http://www.w3.org/1999/xlink" xml:space="preserve" id="svg5876" width="101.248" height="101.805" style="fill-rule:evenodd" version="1.1" viewBox="0 0 2857.429 2873.163"><defs id="defs5878"><linearGradient id="id0" x1="9090.9" x2="8940.44" y1="14607" y2="14529.7" gradientUnits="userSpaceOnUse"><stop id="stop5883" offset="0" style="stop-color:#008644"/><stop id="stop5885" offset="1" style="stop-color:#78b833"/></linearGradient><linearGradient xlink:href="#id0" id="id1" x1="11388.5" x2="11238.1" y1="13997.1" y2="13919.8" gradientUnits="userSpaceOnUse"/><linearGradient xlink:href="#id0" id="id2" x1="11200.3" x2="11049.8" y1="14607" y2="14529.7" gradientUnits="userSpaceOnUse"/><linearGradient xlink:href="#id0" id="id3" x1="11945.7" x2="8164.35" y1="14994.8" y2="13052" gradientUnits="userSpaceOnUse"/><linearGradient xlink:href="#id0" id="id4" x1="10442.8" x2="10309.5" y1="14115.3" y2="14046.8" gradientUnits="userSpaceOnUse"/><linearGradient xlink:href="#id0" id="id5" x1="8738.39" x2="8557.13" y1="14680.1" y2="14587" gradientUnits="userSpaceOnUse"/><linearGradient xlink:href="#id0" id="id6" x1="9748.05" x2="9601.45" y1="14084.2" y2="14008.9" gradientUnits="userSpaceOnUse"/><linearGradient xlink:href="#id0" id="id7" x1="10179.4" x2="10032.7" y1="14694.1" y2="14618.7" gradientUnits="userSpaceOnUse"/><linearGradient xlink:href="#id0" id="id8" x1="10127.3" x2="9946.16" y1="14070.4" y2="13977.3" gradientUnits="userSpaceOnUse"/><linearGradient xlink:href="#id0" id="id9" x1="9587.25" x2="9406.65" y1="14678.4" y2="14585.6" gradientUnits="userSpaceOnUse"/><linearGradient xlink:href="#id0" id="id10" x1="9712.77" x2="9566.31" y1="14038.4" y2="13963.2" gradientUnits="userSpaceOnUse"/><linearGradient xlink:href="#id0" id="id11" x1="10144.2" x2="9997.67" y1="14648.2" y2="14572.9" gradientUnits="userSpaceOnUse"/><linearGradient id="linearGradient5769" x1="0" x2="1" y1="0" y2="0" gradientTransform="rotate(152.806 266.688 75.981) scale(105.31674)" gradientUnits="userSpaceOnUse" spreadMethod="pad"><stop id="stop5771" offset="0" style="stop-opacity:1;stop-color:#00904c"/><stop id="stop5773" offset="1" style="stop-opacity:1;stop-color:#72bf44"/></linearGradient><linearGradient id="linearGradient5749" x1="0" x2="1" y1="0" y2="0" gradientTransform="rotate(152.806 269.645 88.216) scale(105.30789)" gradientUnits="userSpaceOnUse" spreadMethod="pad"><stop id="stop5751" offset="0" style="stop-opacity:1;stop-color:#00904c"/><stop id="stop5753" offset="1" style="stop-opacity:1;stop-color:#72bf44"/></linearGradient><linearGradient id="linearGradient5729" x1="0" x2="1" y1="0" y2="0" gradientTransform="matrix(-93.6566 48.1208 -48.1208 -93.6566 549.7 43.26)" gradientUnits="userSpaceOnUse" spreadMethod="pad"><stop id="stop5731" offset="0" style="stop-opacity:1;stop-color:#00904c"/><stop id="stop5733" offset="1" style="stop-opacity:1;stop-color:#72bf44"/></linearGradient><linearGradient id="linearGradient5709" x1="0" x2="1" y1="0" y2="0" gradientTransform="matrix(-93.6713 48.1283 -48.1283 -93.6713 549.688 43.23)" gradientUnits="userSpaceOnUse" spreadMethod="pad"><stop id="stop5711" offset="0" style="stop-opacity:1;stop-color:#00904c"/><stop id="stop5713" offset="1" style="stop-opacity:1;stop-color:#72bf44"/></linearGradient><linearGradient id="linearGradient5689" x1="0" x2="1" y1="0" y2="0" gradientTransform="rotate(152.806 271.953 97.759) scale(105.30744)" gradientUnits="userSpaceOnUse" spreadMethod="pad"><stop id="stop5691" offset="0" style="stop-opacity:1;stop-color:#00904c"/><stop id="stop5693" offset="1" style="stop-opacity:1;stop-color:#72bf44"/></linearGradient><linearGradient id="linearGradient5669" x1="0" x2="1" y1="0" y2="0" gradientTransform="rotate(152.806 265.238 69.995) scale(105.30744)" gradientUnits="userSpaceOnUse" spreadMethod="pad"><stop id="stop5671" offset="0" style="stop-opacity:1;stop-color:#00904c"/><stop id="stop5673" offset="1" style="stop-opacity:1;stop-color:#72bf44"/></linearGradient><linearGradient id="linearGradient5649" x1="0" x2="1" y1="0" y2="0" gradientTransform="rotate(152.806 268.939 85.297) scale(105.30744)" gradientUnits="userSpaceOnUse" spreadMethod="pad"><stop id="stop5651" offset="0" style="stop-opacity:1;stop-color:#00904c"/><stop id="stop5653" offset="1" style="stop-opacity:1;stop-color:#72bf44"/></linearGradient><linearGradient id="linearGradient5629" x1="0" x2="1" y1="0" y2="0" gradientTransform="scale(-105.2993) rotate(-27.194 -3.359 10.562)" gradientUnits="userSpaceOnUse" spreadMethod="pad"><stop id="stop5631" offset="0" style="stop-opacity:1;stop-color:#00904c"/><stop id="stop5633" offset="1" style="stop-opacity:1;stop-color:#72bf44"/></linearGradient><linearGradient id="linearGradient5609" x1="0" x2="1" y1="0" y2="0" gradientTransform="scale(-105.2993) rotate(-27.194 -3.15 10.511)" gradientUnits="userSpaceOnUse" spreadMethod="pad"><stop id="stop5611" offset="0" style="stop-opacity:1;stop-color:#00904c"/><stop id="stop5613" offset="1" style="stop-opacity:1;stop-color:#72bf44"/></linearGradient><linearGradient id="linearGradient5589" x1="0" x2="1" y1="0" y2="0" gradientTransform="rotate(152.806 270.03 89.795) scale(105.32224)" gradientUnits="userSpaceOnUse" spreadMethod="pad"><stop id="stop5591" offset="0" style="stop-opacity:1;stop-color:#00904c"/><stop id="stop5593" offset="1" style="stop-opacity:1;stop-color:#72bf44"/></linearGradient><linearGradient id="linearGradient5569" x1="0" x2="1" y1="0" y2="0" gradientTransform="rotate(152.806 267.657 79.995) scale(105.30744)" gradientUnits="userSpaceOnUse" spreadMethod="pad"><stop id="stop5571" offset="0" style="stop-opacity:1;stop-color:#00904c"/><stop id="stop5573" offset="1" style="stop-opacity:1;stop-color:#72bf44"/></linearGradient><linearGradient id="linearGradient5549" x1="0" x2="1" y1="0" y2="0" gradientTransform="rotate(152.806 266.038 73.304) scale(105.30744)" gradientUnits="userSpaceOnUse" spreadMethod="pad"><stop id="stop5551" offset="0" style="stop-opacity:1;stop-color:#00904c"/><stop id="stop5553" offset="1" style="stop-opacity:1;stop-color:#72bf44"/></linearGradient><linearGradient id="linearGradient7356" x1="0" x2="1" y1="0" y2="0" gradientTransform="scale(-123.45786 123.45786) rotate(27.2 -7.62 -7.002)" gradientUnits="userSpaceOnUse" spreadMethod="pad"><stop id="stop7358" offset="0" style="stop-opacity:1;stop-color:#00853e"/><stop id="stop7360" offset="1" style="stop-opacity:1;stop-color:#76b82a"/></linearGradient><linearGradient id="linearGradient7286" x1="0" x2="1" y1="0" y2="0" gradientTransform="scale(-83.30679 83.30679) rotate(27.2 -8.648 -11.143)" gradientUnits="userSpaceOnUse" spreadMethod="pad"><stop id="stop7288" offset="0" style="stop-opacity:1;stop-color:#00853e"/><stop id="stop7290" offset="1" style="stop-opacity:1;stop-color:#76b82a"/></linearGradient><clipPath id="clipPath7428" clipPathUnits="userSpaceOnUse"><path id="path7430" d="M0 0h841.89v595.276H0V0z"/></clipPath><clipPath id="clipPath7386" clipPathUnits="userSpaceOnUse"><path id="path7388" d="M0 0h841.89v595.276H0V0z"/></clipPath><clipPath id="clipPath7368" clipPathUnits="userSpaceOnUse"><path id="path7370" d="M0 0h841.89v595.276H0V0z"/></clipPath><clipPath id="clipPath7298" clipPathUnits="userSpaceOnUse"><path id="path7300" d="M0 0h841.89v595.276H0V0z"/></clipPath><style id="style5880" type="text/css">.fil0{fill:url(#id0)}.fil7{fill:url(#id1)}.fil9{fill:url(#id2)}.fil10{fill:url(#id3)}.fil2{fill:url(#id4)}.fil6{fill:url(#id5)}.fil5{fill:url(#id6)}.fil1{fill:url(#id7)}.fil8{fill:url(#id8)}.fil11{fill:url(#id9)}.fil4{fill:url(#id10)}.fil3{fill:url(#id11)}</style></defs><g id="g7274" transform="matrix(35.27778 0 0 -35.27778 -14308.138 8206.705)"><g id="g7276"><g id="g7282"><g id="g7284"><path id="path7292" d="M427.39 232.631c-12.043 0-21.805-9.758-21.805-21.805v-59.639h63.796c8.274 1.444 14.943 7.548 17.202 15.509v65.935H427.39z" style="fill:url(#linearGradient7286);stroke:none"/></g></g></g></g><g id="g7294" transform="matrix(35.27778 0 0 -35.27778 -14308.138 8206.705)"><g id="g7296" clip-path="url(#clipPath7298)"><g id="g7302" transform="translate(435.552 190.738)"><path id="path7304" d="M0 0v-8.543h3.852v9.634c0 3.147-1.673 6.233-5.682 6.233-2.318 0-4.049-1.063-5.077-2.922-.868 1.73-2.444 2.922-4.82 2.922-2.471 0-4.114-1.416-4.786-2.922h-.065v.851c0 .894-.727 1.626-1.616 1.626h-2.043V-8.543h3.856v8.478c0 2.058 1.061 4.174 3.372 4.174 1.959 0 2.856-1.442 2.856-3.337v-9.315h3.861v8.41c0 1.99.986 4.242 3.398 4.242C-.418 4.109 0 1.832 0 0" style="fill:#fff;fill-opacity:1;fill-rule:nonzero;stroke:none"/></g><g id="g7306" transform="translate(454.561 201.43)"><path id="path7308" d="m0 0-.025.157v-5.925H-.12c-.805 1.001-2.348 2.411-5.172 2.411-4.406 0-7.492-3.535-7.492-8.098 0-4.497 2.894-8.223 7.59-8.223 2.146 0 4.236.994 5.291 2.757h.07v-2.313H3.83V3.074h-.744A3.085 3.085 0 0 1 0 0m-4.425-16.471c-2.991 0-4.44 2.608-4.44 5.016 0 2.414 1.449 4.95 4.44 4.95 2.826 0 4.522-2.603 4.522-5.017 0-2.41-1.696-4.949-4.522-4.949" style="fill:#fff;fill-opacity:1;fill-rule:nonzero;stroke:none"/></g><g id="g7310" transform="translate(474.013 195.815)"><path id="path7312" d="M0 0v-.702h-.059c-1.126 1.873-3.15 2.768-5.303 2.768-4.654 0-7.545-3.633-7.545-8.096 0-4.367 2.989-8.033 7.61-8.033 2.122 0 3.919.804 5.041 2.306h.069v-1.123c0-3.053-1.161-5.296-4.887-5.296-1.927 0-3.916.767-5.394 2.181l-2.212-2.977c1.989-1.646 5.133-2.541 7.642-2.541 6.006 0 8.704 3.534 8.704 9.084V1.618H1.622C.732 1.618 0 .887 0 0m-4.587-10.885c-2.763 0-4.403 2.446-4.403 4.887 0 2.726 1.64 4.918 4.431 4.918C-1.761-1.08 0-3.336 0-5.998c0-2.575-1.736-4.887-4.587-4.887" style="fill:#fff;fill-opacity:1;fill-rule:nonzero;stroke:none"/></g></g></g></svg>