<?xml version="1.0" encoding="UTF-8"?>
<svg id="Layer_1" data-name="Layer 1" xmlns="http://www.w3.org/2000/svg" viewBox="0 0 2099 1711">
  <defs>
    <style>
      .cls-1 {
        fill: #f40001;
        stroke-width: 0px;
      }
    </style>
  </defs>
  <path class="cls-1" d="M662.96,1655.75c-3.79-1.91-5.01-3.34-8.11-9.55-17.2-34.42-32.18-161.59-36.95-313.7-1.72-54.81-.09-178.65,2.39-181.12.23-.23,8.02,3.01,17.32,7.2,124.6,56.22,287.06,123.73,459.53,190.95l27.64,10.77-12.47,11.02c-76.39,67.5-171.48,140.82-251.8,194.14-104.11,69.12-175.13,101.57-197.54,90.27h0ZM1719,1428.43c-1.93-.21-10.25-.88-18.5-1.48-94.33-6.94-249.96-39.32-367.51-76.48-18.26-5.77-52.35-17.46-62.44-21.41l-2.95-1.15,18.45-17.63c68.04-65.01,144.43-143.45,289.75-297.54,40.32-42.75,73.67-77.73,74.11-77.73.81,0,2.4,3.29,17.85,37,57.29,124.94,114.44,279.6,135.77,367.45,6.87,28.3,8.82,40.9,8.9,57.55.08,17.49-.84,19.85-9.49,24.27-10.54,5.39-21.28,6.86-52.45,7.21-15.4.17-29.57.15-31.5-.06h0ZM1181,1300.81c-112.64-27.97-278.51-88.28-422.07-153.46-29.66-13.47-104.13-50.12-126.68-62.34l-11.25-6.1v-7.7c.01-4.24.47-17.6,1.02-29.7,5.67-123.93,26.79-260.73,64.54-418,8.6-35.82,23.16-92.13,24.46-94.55,1.61-3.02,62.96-20.41,138.97-39.4,163.77-40.92,340.62-75.55,447.5-87.62l19-2.15,6.35,6.86c82.42,89,178.72,235.8,269.19,410.36,20.11,38.8,27.22,53.76,26.29,55.31-2.83,4.69-32.35,40.99-49.76,61.19-103.61,120.2-251.48,264.49-369.57,360.62l-10.5,8.55-7.5-1.86h0ZM543,1037.35c-131.33-76.1-242.32-153.76-295.59-206.82-21.21-21.13-29.99-33.98-29.84-43.69.24-15.4,34.77-47.55,91.43-85.11,74.91-49.67,169.22-96.03,266-130.79,20.66-7.42,69.22-23.05,69.8-22.47.17.17-2.62,13.97-6.21,30.67-35.69,166.03-65.57,342.28-75.07,442.86-2.03,21.45-2.5,25.01-3.33,24.96-.38-.02-8.11-4.35-17.19-9.6h0ZM1656.02,807.18c-2.97-5.32-13.8-24.08-24.07-41.68-46.5-79.72-94.09-153.44-184.96-286.5-55.59-81.41-57.39-84.13-56.01-84.99.66-.41,4.42-1.04,8.35-1.4,3.94-.36,14.14-1.32,22.66-2.13,38.11-3.61,61.98-4.69,115.05-5.19,69.48-.66,107.64,1.03,163.95,7.27,91.31,10.12,163.77,30.69,172.44,48.95,1.56,3.29,1.64,4.63.64,11.33-6.9,46.41-79.14,178.76-161.2,295.35-13.28,18.87-49.26,67.31-50.61,68.15-.46.29-3.27-3.84-6.24-9.16h0ZM734.68,453.57c3.72-12.83,18.32-56.09,25.33-75.07,20.15-54.5,41.07-102.72,67.42-155.5,21.17-42.39,37.82-71.87,57.1-101.09,23.15-35.09,41.63-53.91,52.94-53.91,22.43,0,79.98,36.59,149.51,95.04,53.98,45.38,123.33,113.54,176.93,173.9,7.3,8.22,8.14,9.53,6.48,10.15-1.05.39-16.31,3.03-33.91,5.85-117.81,18.93-311.01,59.11-473.14,98.39l-30.14,7.3,1.47-5.07h0Z"/>
</svg>